<?xml version="1.0" encoding="utf-8"?>
<!-- Generator: Adobe Illustrator 19.0.0, SVG Export Plug-In . SVG Version: 6.00 Build 0)  -->
<svg version="1.1" id="Layer_1" xmlns="http://www.w3.org/2000/svg" xmlns:xlink="http://www.w3.org/1999/xlink" x="0px" y="0px"
	 viewBox="0 0 612 612" style="enable-background:new 0 0 612 612;" xml:space="preserve">
<style type="text/css">
	.st0{fill:#3A54A5;}
	.st1{fill:#FFFFFF;}
</style>
<path id="XMLID_108_" class="st0" d="M306,146.2c-88.3,0-159.8,71.6-159.8,159.8S217.7,465.8,306,465.8S465.8,394.3,465.8,306
	S394.3,146.2,306,146.2z M187.8,306c0-2.4,0.1-4.7,0.2-7.1c2.3-0.9,7.1-2.9,12.6-6.4v30.8H189C188.2,317.7,187.8,311.9,187.8,306z
	 M203.2,290.8c4.4-3.1,9.1-7,13.4-12.1v44.6h-13.4V290.8z M219.2,275.4c3.5-4.7,6.5-10.1,8.8-16.5v64.3h-8.8V275.4z M239.8,257.1
	c1.7,3.5,4.5,8.7,8.8,14.3v51.8h-8.8V257.1z M251.2,274.7c3.6,4.2,8,8.5,13.4,12.3v36.3h-13.4V274.7z M267.3,288.7
	c4,2.5,8.4,4.8,13.4,6.6v28h-13.4V288.7z M283.3,296.2c4.1,1.3,8.6,2.3,13.4,2.8v24.3h-13.4V296.2z M299.3,299.3
	c2.2,0.2,4.4,0.3,6.7,0.3c2.3,0,4.5-0.1,6.7-0.3v24h-13.4V299.3z M315.3,299c4.8-0.6,9.3-1.5,13.4-2.8v27.1h-13.4V299z M331.3,295.3
	c5-1.8,9.4-4.1,13.4-6.6v34.6h-13.4V295.3z M347.4,286.9c5.4-3.8,9.8-8.1,13.4-12.3v48.7h-13.4V286.9z M363.4,271.4
	c4.3-5.6,7.1-10.8,8.8-14.3v66.2h-8.8V271.4z M384,259c2.3,6.3,5.3,11.8,8.8,16.5v47.9H384V259z M395.4,278.7c4.3,5,9,9,13.4,12.1
	v32.5h-13.4V278.7z M411.4,292.5c5.5,3.5,10.3,5.6,12.6,6.4c0.1,2.3,0.2,4.7,0.2,7.1c0,5.9-0.4,11.7-1.3,17.3h-11.5V292.5z
	 M306,187.8c61.4,0,111.9,46.9,117.7,106.8c-5.8-2.5-18.8-9.3-28.3-22.3v-0.4h-0.3c-4-5.5-7.3-12.2-9.3-20.2l-0.4-1.5h-14.8
	l-0.5,1.3c-0.1,0.3-6.9,19.4-25.5,32.4h-0.1v0.1c-4.6,3.2-9.9,6-16,8.1h0v0c-6.6,2.2-14.1,3.6-22.7,3.6c-48.7,0-63.7-42.4-64.3-44.2
	l-0.5-1.3h-14.8l-0.4,1.5c-6.5,27-29.4,39.2-37.8,42.9C194.1,234.6,244.6,187.8,306,187.8z M306,424.2
	c-55.6,0-102.3-38.4-114.9-90.2h10.8h16H228v25.8h11.8v-25.8h10.1h16h16h16h16h16h16h16h10.1v25.8H384v-25.8h10.1h16h10.8
	C408.3,385.8,361.6,424.2,306,424.2z"/>
<g>
	<path class="st0" d="M326.4,341.9h0.2l0,0c0,0.2,0,0.5,0,0.6c0.1,0.1,0.3,0.3,0.5,0.3c0.2,0.1,0.4,0.1,0.7,0.1
		c0.3,0,0.6-0.1,0.8-0.3c0.2-0.2,0.3-0.4,0.3-0.6c0-0.1,0-0.2-0.1-0.3c-0.1-0.1-0.2-0.2-0.3-0.2c-0.1-0.1-0.4-0.1-0.7-0.2
		c-0.3-0.1-0.5-0.1-0.6-0.2c-0.1,0-0.2-0.1-0.4-0.2c-0.1-0.1-0.2-0.2-0.3-0.3c-0.1-0.1-0.1-0.3-0.1-0.5c0-0.4,0.2-0.7,0.5-1
		c0.3-0.2,0.7-0.4,1.2-0.4c0.2,0,0.4,0,0.6,0.1c0.2,0.1,0.4,0.1,0.5,0.2l0,0.1c0,0.1,0,0.4,0,0.9l0,0H329l0,0c0-0.2,0-0.3,0-0.4
		c0-0.1-0.1-0.2-0.2-0.2c-0.1-0.1-0.2-0.2-0.4-0.2c-0.2-0.1-0.3-0.1-0.5-0.1c-0.2,0-0.3,0-0.5,0.1c-0.1,0.1-0.2,0.1-0.3,0.2
		c-0.1,0.1-0.1,0.2-0.1,0.4c0,0.1,0,0.2,0.1,0.3c0,0.1,0.1,0.2,0.2,0.2c0.1,0.1,0.2,0.1,0.3,0.1l0.5,0.1c0.4,0.1,0.7,0.2,0.9,0.3
		c0.2,0.1,0.3,0.2,0.4,0.3c0.1,0.1,0.1,0.3,0.1,0.5c0,0.4-0.2,0.8-0.5,1.1c-0.3,0.3-0.8,0.4-1.3,0.4c-0.2,0-0.4,0-0.7-0.1
		c-0.3,0-0.5-0.1-0.7-0.1l0-0.1l0-0.3c0-0.1,0-0.2,0-0.3C326.3,342.4,326.3,342.2,326.4,341.9L326.4,341.9z"/>
	<path class="st0" d="M331.5,339L331.5,339c0.1,0.4,0,0.9,0,1.5v1c0,0.1,0,0.3,0,0.6c0,0.4,0,0.6,0,0.6c0,0.1,0,0.1,0.1,0.1
		c0,0,0.1,0,0.1,0.1c0,0,0.2,0,0.5,0l0,0v0.2l0,0c-0.4,0-0.7,0-1.1,0c-0.3,0-0.7,0-1.1,0l0,0V343l0,0c0.3,0,0.4,0,0.5,0
		c0,0,0.1,0,0.1-0.1c0,0,0-0.1,0.1-0.1c0-0.1,0-0.2,0-0.6c0-0.3,0-0.6,0-0.7v-0.9c0-0.1,0-0.3,0-0.5c0-0.2,0-0.3,0-0.4
		c0,0,0-0.1-0.1-0.1c0,0-0.1,0-0.2,0l-0.4,0l0,0v-0.2l0,0C330.6,339.2,331.1,339.1,331.5,339z M331.1,337c0.1,0,0.3,0,0.4,0.1
		c0.1,0.1,0.1,0.2,0.1,0.4c0,0.1,0,0.3-0.1,0.4c-0.1,0.1-0.2,0.1-0.4,0.1c-0.1,0-0.3,0-0.4-0.1c-0.1-0.1-0.1-0.2-0.1-0.4
		c0-0.1,0-0.3,0.1-0.4C330.8,337,330.9,337,331.1,337z"/>
	<path class="st0" d="M334,339L334,339c0.1,0.3,0.1,0.5,0,0.8c0.2-0.2,0.5-0.4,0.7-0.6c0.1-0.1,0.1-0.1,0.2-0.1
		c0.1,0,0.1-0.1,0.3-0.1c0.1,0,0.3,0,0.4,0c0.2,0,0.4,0,0.7,0.1c0.2,0.1,0.4,0.2,0.5,0.3c0.1,0.1,0.2,0.3,0.2,0.4s0.1,0.4,0.1,0.6
		v0.8c0,0.1,0,0.4,0,1.1c0,0.3,0,0.4,0.1,0.5c0.1,0.1,0.2,0.1,0.6,0.1l0,0v0.2l0,0c-0.4,0-0.6,0-0.8,0c-0.1,0-0.3,0-0.7,0l-0.1,0
		c0-0.4,0.1-0.9,0.1-1.5v-0.6c0-0.4,0-0.6,0-0.8c0-0.2-0.1-0.3-0.1-0.4c-0.1-0.1-0.2-0.2-0.3-0.3c-0.1-0.1-0.3-0.1-0.5-0.1
		c-0.2,0-0.3,0-0.4,0c-0.1,0-0.2,0.1-0.4,0.2c-0.1,0.1-0.2,0.2-0.3,0.3c-0.1,0.1-0.1,0.2-0.1,0.2c0,0.1,0,0.2,0,0.5v0.8
		c0,0.1,0,0.3,0,0.6c0,0.4,0,0.6,0,0.6c0,0.1,0,0.1,0.1,0.1c0,0,0.1,0,0.1,0.1c0,0,0.2,0,0.5,0l0,0v0.2l0,0c-0.4,0-0.7,0-1.1,0
		c-0.3,0-0.7,0-1.1,0l0,0V343l0,0c0.3,0,0.5,0,0.5,0c0,0,0.1,0,0.1-0.1c0,0,0-0.1,0.1-0.1c0-0.1,0-0.2,0-0.6c0-0.3,0-0.6,0-0.7v-0.9
		c0-0.1,0-0.3,0-0.5c0-0.2,0-0.3,0-0.4c0,0,0-0.1-0.1-0.1c0,0-0.1,0-0.2,0l-0.4,0l0,0v-0.2l0,0C333.1,339.2,333.6,339.1,334,339z"/>
	<path class="st0" d="M341.6,342.7l-0.2,0.3c-0.4,0.2-0.8,0.3-1.3,0.3c-0.7,0-1.2-0.2-1.5-0.6c-0.4-0.4-0.5-0.9-0.5-1.5
		c0-0.3,0-0.5,0.1-0.7c0.1-0.2,0.1-0.4,0.2-0.5c0.1-0.1,0.2-0.3,0.3-0.3c0.1-0.1,0.3-0.2,0.6-0.3c0.3-0.1,0.5-0.2,0.6-0.3
		c0.1,0,0.3-0.1,0.6-0.1c0.5,0,0.8,0.1,1.1,0.3c-0.1,0.3-0.1,0.7-0.1,1.1l0,0h-0.2l0,0c0-0.2,0-0.4,0-0.5c0-0.1-0.1-0.2-0.4-0.3
		c-0.2-0.1-0.4-0.1-0.7-0.1s-0.5,0.1-0.7,0.2c-0.2,0.1-0.3,0.3-0.4,0.5c-0.1,0.2-0.1,0.5-0.1,0.8c0,0.3,0,0.5,0.1,0.8
		c0.1,0.3,0.2,0.5,0.3,0.6c0.1,0.2,0.3,0.3,0.5,0.4c0.2,0.1,0.4,0.2,0.7,0.2c0.2,0,0.3,0,0.5-0.1c0.2,0,0.3-0.1,0.5-0.2L341.6,342.7
		z"/>
	<path class="st0" d="M345.7,342.5l-0.1,0.3c-0.3,0.2-0.6,0.3-0.8,0.4c-0.2,0.1-0.5,0.1-0.6,0.1c-0.4,0-0.7-0.1-1-0.2
		s-0.6-0.4-0.8-0.7c-0.2-0.3-0.3-0.7-0.3-1.2c0-0.3,0-0.6,0.1-0.8c0.1-0.3,0.2-0.4,0.2-0.6c0.1-0.1,0.2-0.3,0.4-0.4
		c0.2-0.1,0.4-0.3,0.6-0.4c0.2-0.1,0.5-0.1,0.7-0.1c0.4,0,0.7,0.1,0.9,0.3c0.3,0.2,0.5,0.4,0.6,0.6c0.1,0.3,0.2,0.5,0.2,0.8
		c0,0.1,0,0.2,0,0.3l0,0c-0.2,0-0.5,0.1-0.8,0.1c-0.3,0-0.6,0-0.7,0h-1.4c0,0.6,0.2,1.1,0.5,1.4c0.3,0.3,0.7,0.4,1.1,0.4
		c0.2,0,0.4,0,0.6-0.1C345.2,342.7,345.5,342.6,345.7,342.5L345.7,342.5z M342.9,340.7c0.1,0,0.3,0,0.6,0c0.4,0,0.6,0,0.8,0
		c0.4,0,0.7,0,0.8,0c0-0.1,0-0.1,0-0.2c0-0.5-0.1-0.8-0.3-1c-0.2-0.2-0.4-0.3-0.8-0.3c-0.4,0-0.6,0.1-0.8,0.4
		C343,339.9,342.9,340.2,342.9,340.7z"/>
	<path class="st0" d="M348.7,343.2L348.7,343.2l-0.1-0.2l1.5-1.6c0.6-0.7,1-1.2,1.2-1.5c0.2-0.4,0.3-0.7,0.3-1
		c0-0.4-0.1-0.7-0.3-0.9c-0.2-0.2-0.5-0.4-0.9-0.4c-0.2,0-0.4,0-0.6,0.1c-0.2,0.1-0.3,0.2-0.4,0.2c-0.1,0.1-0.1,0.3-0.3,0.8l0,0
		h-0.2l0,0c0.1-0.4,0.1-0.8,0.1-1.2c0.3-0.3,0.5-0.4,0.8-0.5c0.2-0.1,0.5-0.1,0.8-0.1c0.3,0,0.6,0.1,0.9,0.2s0.5,0.3,0.7,0.6
		c0.2,0.3,0.3,0.6,0.3,0.9c0,0.3-0.1,0.5-0.2,0.8c-0.1,0.3-0.3,0.5-0.4,0.8c-0.2,0.2-0.5,0.5-0.8,0.9l-1.4,1.4h1.8
		c0.5,0,1,0,1.3-0.1l0,0c0,0.1,0,0.2,0,0.4c0,0.1,0,0.3,0,0.4l0,0c-0.2,0-0.5,0-1,0c-0.4,0-0.7,0-0.9,0c-0.3,0-0.7,0-1.2,0
		C349.2,343.2,348.8,343.2,348.7,343.2z"/>
	<path class="st0" d="M353.3,340.5c0-0.5,0-1,0.1-1.4c0.1-0.4,0.2-0.8,0.4-1.1c0.2-0.3,0.4-0.6,0.7-0.7c0.3-0.2,0.6-0.2,0.9-0.2
		c0.4,0,0.7,0.1,1,0.3c0.3,0.2,0.5,0.5,0.6,0.9c0.1,0.4,0.2,1,0.2,1.7c0,1.2-0.2,2.1-0.5,2.6c-0.4,0.6-0.9,0.8-1.5,0.8
		c-0.3,0-0.6-0.1-0.9-0.2c-0.2-0.1-0.5-0.3-0.6-0.6c-0.2-0.3-0.3-0.6-0.3-0.9S353.3,340.9,353.3,340.5z M354,340.2
		c0,0.6,0,1.1,0.1,1.5c0.1,0.5,0.2,0.8,0.4,1c0.2,0.2,0.4,0.3,0.7,0.3c0.3,0,0.5-0.1,0.7-0.3c0.2-0.2,0.3-0.5,0.4-0.9
		c0.1-0.4,0.1-1,0.1-1.6c0-1-0.1-1.8-0.3-2.3c-0.2-0.5-0.5-0.7-1-0.7c-0.4,0-0.7,0.2-0.9,0.6C354.1,338.2,354,339,354,340.2z"/>
	<path class="st0" d="M357.8,340.5c0-0.5,0-1,0.1-1.4c0.1-0.4,0.2-0.8,0.4-1.1c0.2-0.3,0.4-0.6,0.7-0.7c0.3-0.2,0.6-0.2,0.9-0.2
		c0.4,0,0.7,0.1,1,0.3c0.3,0.2,0.5,0.5,0.6,0.9s0.2,1,0.2,1.7c0,1.2-0.2,2.1-0.5,2.6c-0.4,0.6-0.9,0.8-1.5,0.8
		c-0.3,0-0.6-0.1-0.9-0.2c-0.2-0.1-0.5-0.3-0.6-0.6c-0.2-0.3-0.3-0.6-0.3-0.9C357.9,341.3,357.8,340.9,357.8,340.5z M358.6,340.2
		c0,0.6,0,1.1,0.1,1.5c0.1,0.5,0.2,0.8,0.4,1c0.2,0.2,0.4,0.3,0.7,0.3c0.3,0,0.5-0.1,0.7-0.3c0.2-0.2,0.3-0.5,0.4-0.9
		c0.1-0.4,0.1-1,0.1-1.6c0-1-0.1-1.8-0.3-2.3c-0.2-0.5-0.5-0.7-1-0.7c-0.4,0-0.7,0.2-0.9,0.6C358.7,338.2,358.6,339,358.6,340.2z"/>
	<path class="st0" d="M362.6,343.1c-0.1-0.4-0.2-0.8-0.3-1.3l0-0.1l0.2-0.1l0.1,0c0.1,0.3,0.2,0.5,0.3,0.7c0.1,0.2,0.3,0.3,0.5,0.4
		c0.2,0.1,0.5,0.1,0.7,0.1c0.3,0,0.6-0.1,0.8-0.2c0.2-0.1,0.3-0.3,0.4-0.6c0.1-0.2,0.2-0.5,0.2-0.8c0-0.4-0.1-0.7-0.3-0.9
		c-0.2-0.2-0.5-0.3-0.9-0.3c-0.1,0-0.2,0-0.3,0c-0.1,0-0.2,0.1-0.5,0.2l0,0l0.1-0.5c0.2,0,0.4,0,0.5,0c0.3,0,0.6-0.1,0.8-0.4
		c0.2-0.2,0.3-0.5,0.3-0.9c0-0.3-0.1-0.5-0.3-0.7c-0.2-0.2-0.5-0.3-0.8-0.3c-0.2,0-0.4,0-0.6,0.1c-0.2,0.1-0.3,0.2-0.5,0.3
		c-0.1,0.1-0.1,0.3-0.2,0.6l0,0h-0.2l0,0l0.3-1c0.4-0.4,0.9-0.6,1.5-0.6c0.5,0,0.9,0.1,1.2,0.4c0.3,0.3,0.4,0.6,0.4,1
		c0,0.3-0.1,0.6-0.3,0.8c-0.2,0.2-0.4,0.5-0.7,0.7c0.5,0.1,0.9,0.2,1.1,0.5c0.2,0.2,0.3,0.5,0.3,0.9c0,0.6-0.3,1.1-0.8,1.5
		c-0.5,0.5-1.1,0.7-1.8,0.7c-0.2,0-0.4,0-0.6-0.1S362.8,343.2,362.6,343.1z"/>
</g>
<g id="XMLID_25_">
	<path id="XMLID_26_" class="st1" d="M189.8,214.2l0.1,0c0.5,0.4,1.4,1.1,2.7,2.1l0,0.1l-0.3,0.4l-0.1,0l-0.9-0.5
		c-0.5-0.3-0.8-0.4-0.9-0.5c-0.1,0-0.2-0.1-0.3,0c-0.1,0-0.3,0.2-0.5,0.5s-0.5,0.6-0.8,1l-1.2,1.6c1.3,1,2,1.6,2.2,1.7l5.1,3.7
		l1.7,1.2c0.7,0.5,1.1,0.8,1.3,0.9c0.2,0.1,0.4,0.2,0.5,0.2c0.1,0,0.2-0.1,0.4-0.2c0.2-0.1,0.5-0.5,0.9-1.1l0.1,0l0.4,0.3l0,0.1
		c-1.1,1.5-1.7,2.3-1.9,2.4c-0.1,0.2-0.7,1-1.7,2.5l-0.1,0l-0.4-0.3l0-0.1c0.4-0.6,0.6-0.9,0.7-1.1c0.1-0.2,0.1-0.4,0.1-0.5
		c0-0.1-0.1-0.2-0.2-0.4c-0.2-0.2-0.5-0.5-1.2-0.9l-1.8-1.3l-5.1-3.7c-0.1-0.1-0.9-0.6-2.3-1.6l-0.9,1.3c-0.4,0.5-0.7,1-1,1.4
		c-0.3,0.4-0.4,0.7-0.3,0.8c0.1,0.1,0.3,0.4,0.8,0.8l0.7,0.7l0,0.1l-0.3,0.4l-0.1,0c-1.4-1-2.3-1.6-2.8-1.9l0-0.1c0.8-1,2-2.6,3.7-5
		C188,216.9,189.2,215.2,189.8,214.2z"/>
	<path id="XMLID_28_" class="st1" d="M192.7,209.7l0.2-0.1c0.6,0.6,1.8,1.7,3.6,3.4l2,1.8c0-0.8,0-1.5,0-2.2c0-0.2,0-0.4,0.1-0.5
		c0-0.1,0.1-0.4,0.3-0.6c0.1-0.3,0.3-0.5,0.5-0.8c0.4-0.4,0.8-0.7,1.3-1c0.5-0.2,1-0.4,1.4-0.3c0.4,0,0.8,0.1,1.2,0.3
		s0.8,0.5,1.3,0.9l1.4,1.3c0.1,0.1,0.8,0.7,2,1.7c0.5,0.4,0.9,0.6,1.1,0.6c0.2,0,0.5-0.3,1-0.9l0.1,0l0.3,0.3l0,0.1
		c-0.6,0.6-1.1,1.1-1.3,1.3c-0.1,0.1-0.4,0.5-1,1.2l-0.2,0c-0.6-0.7-1.5-1.5-2.6-2.5l-1.1-0.9c-0.6-0.6-1.1-0.9-1.4-1.2
		c-0.3-0.2-0.6-0.4-1-0.4c-0.4-0.1-0.7,0-1.1,0.1c-0.3,0.1-0.7,0.4-1,0.7c-0.3,0.4-0.5,0.7-0.7,1c-0.1,0.3-0.2,0.7-0.2,1.2
		c0,0.5,0.1,0.8,0.2,1c0.1,0.2,0.4,0.5,0.8,0.9l1.4,1.3c0.1,0.1,0.5,0.4,1.2,1s1.1,0.9,1.2,0.9c0.1,0.1,0.2,0.1,0.3,0.1
		c0.1,0,0.2,0,0.2-0.1c0.1-0.1,0.4-0.3,0.8-0.8l0.1,0l0.3,0.3l0,0.1c-0.6,0.6-1.2,1.3-1.8,1.9c-0.5,0.6-1.1,1.3-1.6,2l-0.1,0
		l-0.3-0.3v-0.1c0.4-0.5,0.7-0.9,0.7-0.9s0.1-0.2,0.1-0.3c0-0.1-0.1-0.2-0.1-0.3c-0.1-0.1-0.4-0.4-1-1c-0.6-0.5-1-0.9-1.3-1.2
		l-4.2-3.7l-1.7-1.5c-0.6-0.5-1-0.9-1.3-1c-0.2-0.2-0.4-0.3-0.5-0.3c-0.1,0-0.2,0-0.2,0.1c-0.1,0.1-0.4,0.4-0.9,0.9l-0.1,0l-0.3-0.3
		l0-0.1C191.8,211.7,192.4,210.6,192.7,209.7z"/>
	<path id="XMLID_30_" class="st1" d="M216.3,205.9l0.3,0.8c-0.2,0.9-0.5,1.5-0.8,2.1s-0.7,0.9-1,1.2c-0.6,0.6-1.3,1-2.1,1.3
		c-0.8,0.3-1.6,0.3-2.5,0.1c-0.9-0.2-1.7-0.8-2.5-1.6c-0.5-0.5-0.9-1.1-1.2-1.7c-0.3-0.6-0.5-1-0.5-1.4c-0.1-0.4,0-0.8,0.1-1.4
		c0.1-0.6,0.3-1.2,0.5-1.7c0.2-0.5,0.6-1,1.1-1.4c0.6-0.6,1.3-1,2.1-1.1c0.8-0.2,1.4-0.1,2.1,0.2c0.6,0.3,1.2,0.7,1.7,1.2
		c0.2,0.2,0.3,0.3,0.4,0.5l0,0.2c-0.3,0.4-0.7,0.9-1.3,1.5c-0.6,0.6-1,1-1.1,1.2l-2.5,2.4c1,1.1,2.1,1.6,3.1,1.6
		c1,0,1.9-0.4,2.7-1.1c0.4-0.3,0.7-0.7,0.9-1.2c0.2-0.4,0.4-1,0.6-1.5L216.3,205.9z M208.3,207.5c0.1-0.1,0.5-0.4,1.1-1
		c0.6-0.6,1.1-1,1.4-1.3c0.7-0.7,1.1-1.1,1.3-1.3c-0.1-0.1-0.2-0.2-0.3-0.3c-0.8-0.8-1.5-1.2-2.2-1.3s-1.3,0.2-1.9,0.7
		c-0.6,0.6-0.9,1.3-0.8,2C207,205.8,207.5,206.6,208.3,207.5z"/>
	<path id="XMLID_33_" class="st1" d="M213.4,190.4c1.5-1,2.4-1.7,2.8-2c0.5-0.4,1.1-0.9,1.8-1.4c0.7-0.5,1.1-0.9,1.3-1
		c0.8-0.6,1.5-1,2.2-1.2c0.7-0.2,1.3-0.2,2,0c0.7,0.2,1.2,0.6,1.7,1.2c0.4,0.5,0.6,1.1,0.7,1.8c0.1,0.7,0.1,1.3-0.1,2
		c-0.2,0.7-0.4,1.2-0.8,1.7c-0.3,0.5-0.7,0.9-1.2,1.2c-0.4,0.3-0.8,0.5-1.3,0.8l-0.5-0.4l0-0.1c0.5-0.2,0.9-0.4,1.2-0.6
		c0.8-0.6,1.2-1.3,1.3-2.1c0.1-0.8-0.2-1.6-0.7-2.4c-0.6-0.8-1.3-1.2-2.1-1.4c-0.8-0.1-1.7,0.2-2.7,0.9c-0.5,0.4-1,0.9-1.5,1.6
		c0.3,0.5,1,1.6,2.3,3.3l3,4l1.3,1.7c0.5,0.6,0.8,1.1,1,1.2s0.3,0.3,0.4,0.3c0.1,0,0.2,0,0.4-0.1c0.2-0.1,0.6-0.3,1.2-0.7l0.1,0
		l0.3,0.4l0,0.1c-1.5,1-2.3,1.6-2.5,1.8c-0.2,0.1-1,0.8-2.4,1.9l-0.1,0l-0.3-0.4l0-0.1c0.5-0.4,0.9-0.7,1-0.9
		c0.2-0.2,0.2-0.3,0.3-0.4c0-0.1,0-0.3-0.1-0.5c-0.1-0.2-0.4-0.6-0.8-1.2l-1.3-1.8l-3-4l-1.3-1.7c-0.5-0.7-0.8-1.1-1-1.2
		c-0.2-0.2-0.3-0.3-0.4-0.3s-0.2,0-0.4,0.1c-0.2,0.1-0.6,0.3-1.2,0.8l-0.1,0l-0.3-0.4L213.4,190.4z"/>
	<path id="XMLID_35_" class="st1" d="M230.5,184.5l0.2,0c0.2,0.4,0.5,1,1.1,1.9l0.1-1.3c0-0.4,0.1-0.8,0.2-1
		c0.1-0.3,0.2-0.5,0.4-0.7c0.2-0.2,0.4-0.4,0.6-0.6c0.3-0.2,0.6-0.3,0.9-0.3l0.1,0.1c0.4,0.9,0.8,1.6,1.2,2.2l-0.4,0.3
		c-0.6-0.4-1.2-0.4-1.7-0.1c-0.4,0.2-0.6,0.6-0.8,1s-0.1,0.8,0,1.3c0.1,0.4,0.4,0.9,0.7,1.5l0.6,1c0.1,0.2,0.4,0.6,0.9,1.3
		c0.5,0.7,0.7,1.1,0.8,1.2c0.1,0.1,0.2,0.1,0.3,0.2c0.1,0,0.2,0,0.3,0c0.1,0,0.6-0.3,1.4-0.7l0.1,0l0.2,0.4l0,0.1
		c-0.8,0.5-1.7,1-2.6,1.5c-0.7,0.4-1.4,0.9-2.1,1.4l-0.1,0l-0.2-0.4l0-0.1c0.6-0.4,0.9-0.6,0.9-0.7s0.1-0.1,0.1-0.2s0-0.2,0-0.3
		s-0.3-0.5-0.7-1.2c-0.4-0.7-0.7-1.2-0.9-1.5l-1.1-1.8c-0.2-0.2-0.4-0.6-0.7-1c-0.3-0.4-0.5-0.7-0.5-0.7c-0.1-0.1-0.2-0.1-0.3-0.1
		s-0.3,0.1-0.5,0.2l-0.8,0.5l-0.1,0l-0.2-0.4l0-0.1C229.1,186.1,229.9,185.3,230.5,184.5z"/>
	<path id="XMLID_37_" class="st1" d="M247.2,185.1l0.1,0.8c-0.4,0.8-0.9,1.4-1.3,1.8c-0.4,0.4-0.9,0.7-1.3,0.9
		c-0.8,0.4-1.6,0.6-2.4,0.7c-0.8,0.1-1.7-0.2-2.5-0.6c-0.8-0.5-1.5-1.2-2-2.2c-0.4-0.7-0.6-1.3-0.7-1.9c-0.1-0.6-0.2-1.1-0.1-1.5
		s0.2-0.8,0.5-1.3c0.3-0.5,0.6-1,1-1.5c0.4-0.4,0.9-0.8,1.4-1.1c0.8-0.4,1.5-0.6,2.3-0.5c0.8,0.1,1.4,0.3,1.9,0.7
		c0.5,0.4,1,1,1.3,1.6c0.1,0.2,0.2,0.4,0.3,0.6l0,0.2c-0.4,0.3-0.9,0.7-1.6,1.1c-0.7,0.4-1.2,0.7-1.4,0.8l-3.1,1.6
		c0.7,1.3,1.5,2.1,2.5,2.4c1,0.3,1.9,0.2,2.9-0.3c0.4-0.2,0.8-0.5,1.2-0.9s0.6-0.8,1-1.3L247.2,185.1z M239.1,184.4
		c0.1,0,0.6-0.3,1.4-0.6c0.8-0.4,1.3-0.7,1.7-0.9c0.9-0.5,1.4-0.8,1.6-0.9c-0.1-0.2-0.1-0.3-0.2-0.4c-0.5-1-1.1-1.6-1.8-1.9
		c-0.7-0.3-1.3-0.2-2,0.1c-0.8,0.4-1.2,1-1.3,1.7C238.3,182.4,238.6,183.3,239.1,184.4z"/>
	<path id="XMLID_40_" class="st1" d="M247.3,181.7l-0.1-0.1l-0.1-1.5l5.3-2.3l0.1,0.1l0.1,1.5L247.3,181.7z"/>
	<path id="XMLID_42_" class="st1" d="M268.6,176.5l-0.1,1.1c-1.2,1.3-2.7,2.2-4.4,2.8c-2.4,0.8-4.7,0.8-6.7,0
		c-2-0.9-3.4-2.4-4.2-4.6c-0.5-1.5-0.6-3-0.3-4.4c0.4-1.4,1.1-2.6,2.1-3.6c1-1,2.4-1.8,3.9-2.3c0.9-0.3,1.8-0.5,2.8-0.6
		s1.8-0.1,2.4-0.1l0.1,0.1c0,0.4,0.2,1.4,0.5,3l0,0.1l-0.5,0.2l-0.1-0.1l-0.7-1.7c-0.6-0.2-1.3-0.3-2.1-0.3c-0.8,0-1.5,0.2-2.3,0.4
		c-1.1,0.4-2.1,1-2.8,1.8c-0.7,0.8-1.2,1.8-1.4,2.9c-0.2,1.1,0,2.3,0.4,3.7c0.5,1.4,1.2,2.4,2.1,3.3s2,1.3,3.2,1.5s2.5,0.1,3.9-0.4
		c0.6-0.2,1.2-0.5,1.7-0.8c0.5-0.3,0.9-0.6,1.2-0.9c0.3-0.3,0.6-0.6,0.8-1L268.6,176.5z"/>
	<path id="XMLID_44_" class="st1" d="M269,173.2c-0.2-0.8-0.2-1.7-0.1-2.5c0.2-0.9,0.6-1.7,1.3-2.4c0.7-0.8,1.7-1.3,2.8-1.6
		c1.5-0.3,2.8-0.2,3.9,0.5c1.1,0.7,1.9,1.8,2.2,3.2c0.4,1.6,0.2,3-0.6,4.3c-0.8,1.3-2,2.1-3.5,2.5c-1,0.2-1.9,0.2-2.8-0.2
		s-1.6-0.9-2.2-1.5S269.2,174.1,269,173.2z M270.8,172c0.2,1,0.6,1.8,1,2.5c0.4,0.7,1,1.2,1.6,1.6c0.7,0.3,1.3,0.4,2,0.3
		c0.8-0.2,1.4-0.7,1.8-1.5c0.4-0.8,0.4-1.8,0.1-3.1c-0.4-1.5-0.9-2.6-1.7-3.4c-0.8-0.8-1.8-1.1-2.9-0.8c-0.9,0.2-1.5,0.7-1.9,1.5
		S270.5,170.8,270.8,172z"/>
	<path id="XMLID_47_" class="st1" d="M282.3,159.2l0.2,0.1c0.1,0.8,0.3,2.5,0.7,4.9l1.1,6.6c0,0.2,0.1,0.7,0.3,1.5
		c0.2,0.8,0.3,1.3,0.3,1.5c0.1,0.1,0.1,0.2,0.2,0.3c0.1,0.1,0.2,0.1,0.3,0.1s0.5,0,1.2-0.1l0.1,0.1l0.1,0.4l-0.1,0.1
		c-0.9,0.1-1.7,0.2-2.6,0.3c-0.8,0.1-1.7,0.3-2.5,0.5l-0.1-0.1l-0.1-0.4l0.1-0.1c0.7-0.2,1.1-0.3,1.1-0.3c0.1,0,0.2-0.1,0.2-0.2
		c0.1-0.1,0.1-0.2,0.1-0.3c0-0.1,0-0.6-0.1-1.4c-0.1-0.8-0.2-1.4-0.2-1.8l-0.9-5.5l-0.4-2.2c-0.2-0.8-0.3-1.3-0.3-1.6
		c-0.1-0.3-0.1-0.5-0.2-0.5s-0.1-0.1-0.2-0.1c-0.1,0-0.5,0-1.3,0.2l-0.1-0.1l-0.1-0.4l0.1-0.1C280.3,160.2,281.4,159.7,282.3,159.2z
		"/>
	<path id="XMLID_49_" class="st1" d="M289.1,158.3l0.2,0.1c0,0.8,0.2,2.5,0.5,4.9l0.8,6.7c0,0.2,0.1,0.7,0.2,1.5
		c0.1,0.8,0.2,1.3,0.3,1.5s0.1,0.2,0.2,0.3c0.1,0.1,0.2,0.1,0.2,0.1s0.5,0,1.2,0l0.1,0.1l0.1,0.4l-0.1,0.1c-0.9,0-1.8,0.1-2.6,0.2
		c-0.8,0.1-1.7,0.2-2.5,0.4l-0.1-0.1l-0.1-0.4l0.1-0.1c0.7-0.1,1.1-0.2,1.2-0.2c0.1,0,0.2-0.1,0.2-0.2c0.1-0.1,0.1-0.2,0.1-0.3
		s0-0.6-0.1-1.4c-0.1-0.8-0.1-1.4-0.2-1.8l-0.7-5.5l-0.3-2.3c-0.1-0.8-0.2-1.3-0.3-1.6c-0.1-0.3-0.1-0.5-0.2-0.5s-0.1-0.1-0.2-0.1
		s-0.5,0-1.3,0.1l-0.1-0.1l-0.1-0.4l0.1-0.1C287.1,159.1,288.3,158.7,289.1,158.3z"/>
	<path id="XMLID_51_" class="st1" d="M302.6,171.6l-0.3,0.8c-0.7,0.5-1.4,0.9-1.9,1c-0.6,0.2-1.1,0.3-1.5,0.3
		c-0.9,0-1.7-0.1-2.5-0.4s-1.4-0.8-2-1.6c-0.5-0.8-0.8-1.7-0.9-2.9c0-0.8,0-1.4,0.2-2c0.2-0.6,0.3-1.1,0.5-1.4c0.2-0.3,0.5-0.6,1-1
		c0.5-0.4,1-0.7,1.5-0.9s1.1-0.4,1.7-0.4c0.9,0,1.6,0.1,2.3,0.5c0.7,0.4,1.2,0.9,1.5,1.5s0.5,1.3,0.5,2c0,0.2,0,0.4,0,0.6l-0.1,0.1
		c-0.5,0.1-1.1,0.2-2,0.3s-1.4,0.1-1.6,0.1l-3.4,0.2c0.1,1.5,0.5,2.5,1.3,3.2c0.8,0.7,1.7,1,2.7,0.9c0.5,0,1-0.1,1.4-0.3
		c0.5-0.2,0.9-0.5,1.4-0.8L302.6,171.6z M295.4,167.6c0.1,0,0.6,0,1.5,0c0.9,0,1.5,0,1.9-0.1c1-0.1,1.6-0.1,1.8-0.2
		c0-0.2,0-0.3,0-0.4c-0.1-1.1-0.3-1.9-0.8-2.4c-0.5-0.5-1.1-0.7-1.9-0.7c-0.9,0-1.5,0.4-1.9,1C295.6,165.5,295.4,166.4,295.4,167.6z
		"/>
	<path id="XMLID_54_" class="st1" d="M315.5,163.9l0.1,0.2c-0.3,0.4-0.5,0.7-0.6,0.9l-2-0.1c0.2,0.4,0.3,0.8,0.3,1.2
		c0,0.5-0.1,1-0.4,1.5s-0.6,0.9-1,1.2s-0.9,0.6-1.4,0.8s-1.1,0.3-1.8,0.3l-0.5,0c-0.4,0.3-0.7,0.6-0.8,0.7c-0.1,0.2-0.2,0.3-0.2,0.5
		c0,0.3,0.1,0.5,0.4,0.7s0.9,0.2,1.8,0.2l2.4,0c0.8,0,1.3,0.1,1.7,0.3s0.7,0.5,1,1c0.2,0.5,0.4,1,0.3,1.5c0,0.8-0.3,1.6-0.8,2.3
		c-0.5,0.8-1.3,1.3-2.3,1.7c-1,0.4-2,0.6-3.1,0.5c-0.6,0-1.2-0.1-1.8-0.2s-1-0.4-1.4-0.7c-0.4-0.3-0.7-0.7-1-1.1
		c-0.2-0.5-0.4-0.9-0.3-1.4c0-0.3,0.1-0.5,0.1-0.8c0.1-0.3,0.2-0.6,0.5-0.9l2-1c-0.6-0.2-1-0.4-1.2-0.6s-0.2-0.4-0.2-0.7
		c0-0.3,0.1-0.6,0.3-1l1.8-1.2c-1-0.3-1.7-0.7-2-1.2s-0.5-1.1-0.5-1.8c0-0.6,0.2-1.1,0.4-1.6s0.7-0.9,1.2-1.2
		c0.5-0.3,1.1-0.5,1.7-0.7c0.6-0.2,1.2-0.2,1.7-0.2c0.9,0,1.7,0.3,2.5,0.9C313.6,163.9,314.7,163.9,315.5,163.9z M309.6,173.5
		c-1.2,0-1.8,0-2,0c-0.2,0-0.4,0.1-0.8,0.3s-0.6,0.5-0.8,0.9c-0.2,0.4-0.3,0.8-0.3,1.2c0,0.8,0.3,1.5,0.9,2c0.6,0.5,1.4,0.8,2.4,0.8
		c0.8,0,1.5-0.1,2.1-0.4c0.6-0.3,1.1-0.7,1.4-1.2s0.5-1,0.5-1.5c0-0.5-0.1-0.9-0.3-1.3c-0.2-0.4-0.6-0.6-1-0.7
		S310.6,173.5,309.6,173.5z M306.7,166.2c0,0.4,0.1,0.9,0.2,1.4c0.2,0.5,0.4,0.9,0.8,1.2c0.4,0.3,0.8,0.4,1.3,0.4
		c0.6,0,1.2-0.2,1.7-0.6s0.7-1,0.7-1.9c0-0.7-0.2-1.4-0.6-2c-0.4-0.6-1-0.9-1.8-0.9c-0.7,0-1.2,0.2-1.7,0.6
		C306.9,164.7,306.7,165.4,306.7,166.2z"/>
	<path id="XMLID_58_" class="st1" d="M320.3,163.7l0.2,0.2c-0.2,0.9-0.3,2.1-0.5,3.6l-0.2,2.4c0,0.2,0,0.7-0.1,1.5
		c-0.1,0.9-0.1,1.4,0,1.5c0,0.1,0.1,0.3,0.1,0.3c0.1,0.1,0.1,0.1,0.2,0.1c0.1,0,0.5,0.1,1.1,0.2l0.1,0.1l0,0.4l-0.1,0.1
		c-0.9-0.1-1.7-0.2-2.6-0.3c-0.8-0.1-1.7-0.1-2.6-0.2l-0.1-0.1l0-0.4l0.1-0.1c0.7,0,1.1,0,1.2,0s0.2-0.1,0.2-0.1
		c0.1-0.1,0.1-0.2,0.2-0.3s0.1-0.6,0.2-1.4c0.1-0.8,0.2-1.4,0.2-1.8l0.2-2.1c0-0.3,0-0.7,0.1-1.2c0-0.5,0-0.8,0-0.9
		c0-0.1-0.1-0.2-0.1-0.3c-0.1-0.1-0.3-0.1-0.5-0.1l-0.9-0.1l-0.1-0.1l0-0.5l0.1-0.1C318.1,164.1,319.3,164,320.3,163.7z
		 M319.8,158.8c0.3,0,0.6,0.2,0.8,0.4c0.2,0.3,0.3,0.6,0.3,0.9c0,0.3-0.2,0.6-0.4,0.8c-0.3,0.2-0.6,0.3-0.9,0.3
		c-0.3,0-0.6-0.2-0.8-0.4c-0.2-0.3-0.3-0.5-0.3-0.9c0-0.3,0.2-0.6,0.4-0.8C319.2,158.9,319.5,158.8,319.8,158.8z"/>
	<path id="XMLID_61_" class="st1" d="M324.9,167.2l-0.4-0.2l-0.1-0.1l0.2-1.3c1.4-0.7,2.7-1,3.9-0.8c0.8,0.1,1.5,0.4,2,0.8
		s0.8,0.8,1,1.3c0.2,0.5,0.2,1,0.1,1.7l-0.4,2.1l-0.5,3.2c-0.1,0.4-0.1,0.7,0,0.8c0,0.1,0.1,0.2,0.2,0.2c0.1,0,0.2,0.1,0.4,0.1
		l0.6,0.1l0.1,0.1l-0.1,0.4l-0.1,0.1c-0.5-0.1-1-0.2-1.4-0.3c-0.4-0.1-0.9-0.1-1.5-0.2l-0.1-0.2l0.3-1.7l-2.6,1.4
		c-0.4,0.1-0.9,0.1-1.3,0c-0.6-0.1-1-0.3-1.4-0.5c-0.4-0.3-0.6-0.6-0.8-1c-0.2-0.4-0.2-0.9-0.1-1.4c0.2-1,0.6-1.8,1.4-2.3
		c0.7-0.5,2.6-0.7,5.6-0.6c0.2-1,0-1.8-0.3-2.3s-1-0.8-1.8-0.9c-0.4-0.1-0.8-0.1-1.1,0c-0.4,0.1-0.6,0.1-0.6,0.2
		C325.7,166,325.4,166.4,324.9,167.2L324.9,167.2z M329.5,169.6c-2,0-3.3,0.2-3.9,0.5c-0.5,0.3-0.9,0.9-1,1.7
		c-0.2,1.1,0.3,1.7,1.4,1.9c0.9,0.1,2-0.2,3-1.2L329.5,169.6z"/>
	<path id="XMLID_64_" class="st1" d="M334.4,167.6l0.1-0.3l0.1-0.1c0.7-0.1,1.3-0.2,1.7-0.3c0.4-1.8,0.6-2.9,0.7-3.2
		c0.8-0.1,1.4-0.2,2-0.4l0.2,0.3c-0.2,0.4-0.5,1.7-1.1,3.8c0.3,0.1,0.7,0.2,1.1,0.3c0.8,0.2,1.4,0.3,1.8,0.3l0.1,0.1l-0.4,0.8
		l-0.1,0.1c-0.4-0.1-0.7-0.2-1.2-0.3c-0.4-0.1-0.9-0.2-1.5-0.3l-1,4.2c-0.2,1-0.3,1.6-0.4,1.9c0,0.3,0,0.6,0.2,0.8s0.5,0.4,0.9,0.5
		c0.5,0.1,0.9,0.1,1.4-0.1l0.2,0.4c-0.2,0.1-0.7,0.3-1.4,0.8c-0.4,0.1-0.8,0.1-1.2,0c-1.6-0.4-2.2-1.3-1.8-2.8
		c0.1-0.6,0.2-1,0.4-1.4c0-0.1,0.1-0.2,0.1-0.4l1-4.3l-0.4-0.1c-0.3-0.1-0.7-0.1-1.1-0.2L334.4,167.6z"/>
	<path id="XMLID_66_" class="st1" d="M348.4,178.4l-0.5,0.6c-0.9,0.2-1.6,0.4-2.2,0.3c-0.6,0-1.1-0.1-1.6-0.2
		c-0.8-0.2-1.6-0.6-2.2-1.2c-0.6-0.5-1.1-1.3-1.3-2.2c-0.2-0.9-0.2-1.9,0.1-3c0.2-0.7,0.5-1.3,0.8-1.9c0.4-0.5,0.7-0.9,0.9-1.1
		s0.7-0.4,1.3-0.6c0.6-0.2,1.1-0.3,1.7-0.4s1.2,0,1.8,0.2c0.8,0.2,1.5,0.7,2,1.2c0.5,0.6,0.8,1.2,0.9,1.9c0.1,0.7,0,1.4-0.2,2
		c-0.1,0.2-0.1,0.4-0.2,0.6l-0.1,0.1c-0.5,0-1.1-0.2-1.9-0.4c-0.8-0.2-1.3-0.3-1.6-0.4l-3.3-1c-0.4,1.4-0.4,2.6,0.1,3.5
		s1.3,1.5,2.3,1.8c0.5,0.1,1,0.2,1.5,0.2c0.5,0,1-0.1,1.6-0.3L348.4,178.4z M343.1,172.2c0.1,0.1,0.6,0.2,1.4,0.5s1.4,0.5,1.8,0.6
		c1,0.3,1.5,0.4,1.8,0.5c0.1-0.2,0.1-0.3,0.1-0.4c0.3-1.1,0.3-1.9,0.1-2.6c-0.3-0.6-0.8-1.1-1.5-1.3c-0.8-0.2-1.5-0.1-2.2,0.3
		C343.9,170.3,343.4,171.1,343.1,172.2z"/>
	<path id="XMLID_69_" class="st1" d="M360.5,168.3c1.6,0.8,2.7,1.3,3.1,1.5c0.6,0.3,1.3,0.6,2.1,0.9c0.8,0.3,1.3,0.5,1.5,0.6
		c0.9,0.4,1.6,0.8,2.1,1.3s0.9,1,1,1.7s0.1,1.4-0.2,2.1c-0.3,0.6-0.7,1.1-1.2,1.5c-0.5,0.4-1.1,0.7-1.8,0.9s-1.3,0.2-1.9,0.2
		s-1.1-0.2-1.7-0.4c-0.4-0.2-0.8-0.4-1.3-0.7l0.1-0.7l0.1-0.1c0.4,0.3,0.8,0.6,1.1,0.7c0.9,0.4,1.7,0.4,2.4,0.1
		c0.8-0.3,1.4-0.9,1.7-1.8c0.4-0.9,0.4-1.7,0.1-2.5c-0.3-0.8-1-1.4-2.1-1.9c-0.6-0.3-1.3-0.4-2.1-0.5c-0.3,0.5-0.9,1.7-1.7,3.6
		l-2,4.5l-0.8,1.9c-0.3,0.7-0.5,1.2-0.6,1.5c-0.1,0.2-0.1,0.4,0,0.5s0.1,0.2,0.3,0.3c0.2,0.1,0.6,0.4,1.3,0.7l0.1,0.1l-0.2,0.5
		l-0.1,0c-1.6-0.8-2.6-1.2-2.8-1.3c-0.2-0.1-1.2-0.5-2.8-1.2l0-0.1l0.2-0.5l0.1,0c0.6,0.2,1,0.4,1.3,0.4c0.2,0.1,0.4,0.1,0.5,0
		c0.1,0,0.2-0.1,0.3-0.3c0.1-0.2,0.4-0.6,0.7-1.3l0.9-2.1l2-4.5l0.8-1.9c0.3-0.7,0.5-1.2,0.6-1.5s0.1-0.4,0.1-0.5
		c0-0.1-0.1-0.2-0.3-0.3s-0.6-0.4-1.3-0.7l0-0.1l0.2-0.5L360.5,168.3z"/>
	<path id="XMLID_71_" class="st1" d="M374.1,180.2l0.1,0.2c-0.2,0.3-0.6,1-1.1,1.9l1.2-0.5c0.4-0.2,0.7-0.3,1-0.3
		c0.3-0.1,0.5-0.1,0.8,0c0.3,0,0.6,0.1,0.8,0.3c0.3,0.2,0.5,0.3,0.7,0.6l0,0.2c-0.6,0.8-1,1.5-1.4,2.1l-0.4-0.2
		c0.1-0.7-0.2-1.2-0.7-1.5c-0.4-0.2-0.8-0.3-1.2-0.2c-0.4,0.1-0.8,0.3-1.1,0.6c-0.3,0.3-0.6,0.8-0.9,1.3l-0.6,1
		c-0.1,0.2-0.3,0.7-0.7,1.4c-0.4,0.7-0.6,1.2-0.6,1.3c0,0.1,0,0.2,0,0.3c0,0.1,0.1,0.2,0.2,0.2c0.1,0.1,0.5,0.3,1.3,0.8l0,0.1
		l-0.2,0.4l-0.1,0c-0.8-0.5-1.7-1-2.6-1.5c-0.7-0.4-1.5-0.8-2.3-1.2l0-0.1l0.2-0.4l0.1,0c0.6,0.3,1,0.5,1.1,0.5s0.2,0,0.3,0
		c0.1,0,0.2-0.1,0.3-0.2c0.1-0.1,0.3-0.5,0.7-1.2c0.4-0.7,0.7-1.2,0.9-1.5l1-1.9c0.1-0.3,0.3-0.6,0.5-1c0.2-0.4,0.3-0.7,0.4-0.8
		s0-0.2,0-0.3c-0.1-0.1-0.2-0.2-0.5-0.3l-0.8-0.4l0-0.1l0.2-0.4l0.1,0C371.9,179.8,373.1,180.1,374.1,180.2z"/>
	<path id="XMLID_73_" class="st1" d="M376.3,187.4c0.5-0.7,1.1-1.3,1.8-1.8c0.7-0.5,1.6-0.7,2.7-0.7c1,0,2.1,0.3,3.1,1
		c1.3,0.8,2,1.9,2.3,3.2s0,2.6-0.8,3.8c-0.9,1.4-2.1,2.2-3.6,2.5c-1.5,0.3-2.9,0-4.2-0.8c-0.8-0.5-1.4-1.3-1.8-2.1
		c-0.4-0.9-0.5-1.8-0.4-2.6S375.8,188.2,376.3,187.4z M378.4,187.9c-0.5,0.8-0.9,1.7-1.1,2.5c-0.2,0.8-0.2,1.6,0,2.3
		c0.2,0.7,0.6,1.3,1.2,1.6c0.7,0.5,1.5,0.6,2.3,0.3c0.8-0.3,1.6-1,2.3-2.1c0.8-1.3,1.3-2.5,1.3-3.6s-0.4-2-1.4-2.6
		c-0.8-0.5-1.6-0.6-2.4-0.3S379.1,186.9,378.4,187.9z"/>
	<path id="XMLID_76_" class="st1" d="M398,197.3l-0.1,0.2c-0.5,0.2-0.8,0.3-1,0.4l-1.6-1.2c-0.1,0.4-0.3,0.8-0.5,1.2
		c-0.3,0.4-0.7,0.7-1.2,1c-0.5,0.2-1,0.4-1.5,0.4c-0.5,0-1.1-0.1-1.6-0.2c-0.5-0.2-1.1-0.5-1.6-0.9l-0.4-0.3c-0.5,0-0.9,0-1.1,0.1
		c-0.2,0.1-0.3,0.1-0.5,0.3c-0.2,0.2-0.2,0.5-0.1,0.8c0.1,0.3,0.6,0.7,1.3,1.3l1.9,1.5c0.6,0.5,1,0.9,1.2,1.3
		c0.2,0.4,0.3,0.8,0.2,1.4c-0.1,0.5-0.3,1-0.6,1.4c-0.5,0.6-1.2,1.1-2.1,1.4c-0.9,0.3-1.8,0.3-2.8,0c-1-0.3-2-0.7-2.8-1.4
		c-0.5-0.4-0.9-0.8-1.3-1.2c-0.3-0.4-0.6-0.9-0.8-1.4c-0.2-0.5-0.2-1-0.1-1.5c0.1-0.5,0.3-0.9,0.6-1.3c0.2-0.2,0.4-0.4,0.6-0.6
		c0.2-0.2,0.6-0.3,0.9-0.5l2.2,0.3c-0.4-0.5-0.6-0.9-0.6-1.2c0-0.2,0.1-0.5,0.2-0.7c0.2-0.2,0.4-0.4,0.8-0.6l2.1,0.1
		c-0.6-0.8-0.9-1.6-0.9-2.2s0.3-1.2,0.7-1.7c0.4-0.5,0.8-0.8,1.3-1.1s1.1-0.4,1.7-0.3c0.6,0.1,1.2,0.2,1.8,0.5
		c0.6,0.2,1.1,0.5,1.5,0.8c0.7,0.6,1.2,1.3,1.5,2.3C396.5,196.2,397.3,196.9,398,197.3z M387.6,201.5c-0.9-0.7-1.4-1.1-1.6-1.2
		c-0.2-0.1-0.4-0.1-0.8-0.2c-0.4,0-0.8,0-1.2,0.2c-0.4,0.2-0.7,0.4-1,0.8c-0.5,0.6-0.7,1.3-0.5,2.1s0.6,1.5,1.4,2.1
		c0.6,0.5,1.2,0.8,1.9,0.9c0.7,0.1,1.3,0.1,1.9-0.1c0.6-0.2,1-0.5,1.3-0.9c0.3-0.4,0.5-0.8,0.5-1.2s-0.1-0.8-0.4-1.1
		C388.9,202.6,388.4,202.1,387.6,201.5z M389.6,193.9c-0.3,0.3-0.5,0.8-0.7,1.3s-0.2,1,0,1.4c0.1,0.4,0.4,0.8,0.8,1.1
		c0.5,0.4,1.1,0.6,1.7,0.5c0.6,0,1.2-0.4,1.7-1.1c0.5-0.6,0.7-1.2,0.7-2c0-0.7-0.3-1.3-0.9-1.8c-0.5-0.4-1.1-0.6-1.7-0.5
		S390.1,193.2,389.6,193.9z"/>
	<path id="XMLID_80_" class="st1" d="M402.1,200.1l0.1,0.2c-0.3,0.3-0.8,0.8-1.6,1.6l1.3-0.2c0.4-0.1,0.8-0.1,1-0.1
		c0.3,0,0.5,0.1,0.8,0.2c0.3,0.1,0.5,0.3,0.7,0.5c0.2,0.2,0.4,0.5,0.5,0.7l0,0.2c-0.7,0.6-1.3,1.2-1.8,1.7l-0.4-0.3
		c0.2-0.7,0.1-1.2-0.4-1.7c-0.3-0.3-0.7-0.5-1.1-0.5c-0.4,0-0.8,0.1-1.2,0.3s-0.8,0.6-1.2,1.1l-0.8,0.9c-0.1,0.2-0.5,0.6-1,1.2
		c-0.5,0.6-0.8,1-0.9,1.1c-0.1,0.1-0.1,0.2-0.1,0.3c0,0.1,0,0.2,0.1,0.3c0.1,0.1,0.4,0.5,1.1,1.1l0,0.1l-0.3,0.3l-0.1,0
		c-0.7-0.7-1.4-1.4-2.1-2.1c-0.6-0.6-1.3-1.1-2-1.7l0-0.1l0.3-0.3l0.1,0c0.5,0.4,0.9,0.7,0.9,0.7c0.1,0,0.2,0.1,0.3,0.1
		c0.1,0,0.2-0.1,0.3-0.1c0.1-0.1,0.4-0.4,1-1c0.6-0.6,1-1,1.2-1.3l1.4-1.6c0.2-0.2,0.4-0.5,0.8-0.9c0.3-0.4,0.5-0.6,0.6-0.7
		c0.1-0.1,0.1-0.2,0-0.3c0-0.1-0.2-0.2-0.4-0.4l-0.7-0.6l0-0.1l0.3-0.3l0.1,0C400.1,199.2,401.2,199.8,402.1,200.1z"/>
	<path id="XMLID_82_" class="st1" d="M405.3,207.2l-0.2-0.4l0-0.1l1-0.9c1.6,0.3,2.8,0.8,3.6,1.7c0.6,0.6,0.9,1.2,1.1,1.8
		c0.2,0.6,0.1,1.2,0,1.7s-0.5,1-0.9,1.4l-1.6,1.4l-2.3,2.2c-0.3,0.3-0.5,0.5-0.5,0.6c0,0.1,0,0.2,0,0.3c0,0.1,0.1,0.2,0.2,0.4
		l0.4,0.5l0,0.1l-0.3,0.3l-0.1,0c-0.3-0.4-0.6-0.8-1-1.1c-0.3-0.3-0.7-0.7-1.1-1.1l0-0.2l1.3-1.2l-2.9-0.4c-0.4-0.2-0.7-0.4-1.1-0.8
		c-0.4-0.4-0.7-0.8-0.8-1.3c-0.1-0.4-0.1-0.9,0-1.3s0.4-0.8,0.8-1.2c0.8-0.7,1.6-1.1,2.5-1c0.9,0.1,2.5,1,4.8,2.9
		c0.8-0.7,1.1-1.4,1.1-2.1s-0.3-1.2-0.8-1.8c-0.3-0.3-0.6-0.5-0.9-0.7c-0.3-0.2-0.5-0.2-0.6-0.2
		C406.6,206.7,406.2,206.9,405.3,207.2L405.3,207.2z M407.5,212c-1.6-1.2-2.7-1.9-3.4-2c-0.6-0.1-1.2,0.1-1.8,0.7
		c-0.8,0.8-0.8,1.6-0.1,2.4c0.7,0.7,1.7,1,3.1,0.9L407.5,212z"/>
	<path id="XMLID_85_" class="st1" d="M416.5,215l0,0.2c-0.4,0.3-0.9,0.6-1.4,1l1.4,0.2c0.4,0.1,0.6,0.1,0.8,0.1
		c0.1,0,0.3,0.1,0.6,0.4c0.3,0.2,0.5,0.5,0.8,0.8c0.4,0.6,0.7,1.2,0.7,1.8c0,0.6-0.1,1.3-0.4,1.8c1.3,0.2,2.1,0.4,2.2,0.4
		c0.2,0.1,0.4,0.2,0.7,0.4s0.5,0.5,0.8,0.7c0.3,0.5,0.6,0.9,0.7,1.5c0.1,0.5,0.1,1-0.1,1.5s-0.4,0.8-0.7,1.2
		c-0.3,0.3-0.8,0.7-1.5,1.2L420,229c-0.1,0.1-0.8,0.6-2.1,1.7c-0.5,0.4-0.8,0.7-0.8,0.9c0,0.2,0.2,0.6,0.6,1.2l0,0.1l-0.4,0.3
		l-0.1,0c-0.5-0.8-0.9-1.3-1-1.5c-0.1-0.1-0.4-0.5-1-1.2l0-0.2c0.8-0.5,1.8-1.2,3-2.1l1-0.8c0.9-0.7,1.5-1.2,1.8-1.6
		c0.3-0.4,0.4-0.8,0.4-1.3c0-0.5-0.2-1-0.5-1.4c-0.2-0.3-0.5-0.5-0.8-0.7c-0.3-0.2-0.7-0.3-1.1-0.3c-0.4,0-0.7,0-0.9,0.2
		c-0.2,0.1-0.6,0.4-1.2,0.8l-1.1,0.8c-0.3,0.2-0.7,0.6-1.4,1.1c-0.7,0.5-1.1,0.9-1.2,1s-0.1,0.2-0.2,0.3c0,0.1,0,0.2,0,0.3
		c0,0.1,0.2,0.4,0.6,1l0,0.1l-0.4,0.3l-0.1,0c-0.5-0.7-1-1.5-1.5-2.1c-0.5-0.6-1-1.3-1.6-2l0-0.1l0.4-0.3l0.1,0
		c0.5,0.5,0.7,0.8,0.8,0.9c0.1,0.1,0.2,0.1,0.3,0.1s0.2,0,0.3-0.1c0.1-0.1,0.5-0.3,1.2-0.8c0.6-0.4,1.1-0.8,1.4-1l1-0.7
		c0.6-0.5,1.1-0.9,1.4-1.3c0.3-0.4,0.4-0.8,0.4-1.2c0-0.5-0.1-0.9-0.5-1.4c-0.3-0.3-0.6-0.6-0.9-0.8s-0.7-0.3-1-0.3s-0.6,0-0.8,0.1
		c-0.2,0.1-0.6,0.3-1.2,0.8l-1.3,1c-0.3,0.2-0.7,0.6-1.4,1.1s-1.1,0.9-1.2,1c-0.1,0.1-0.1,0.2-0.2,0.3c0,0.1,0,0.2,0,0.3
		c0,0.1,0.2,0.4,0.6,1l0,0.1l-0.4,0.3l-0.1,0c-0.5-0.7-1-1.5-1.5-2.1c-0.5-0.7-1-1.3-1.6-2l0-0.1l0.4-0.3l0.1,0
		c0.5,0.5,0.7,0.8,0.8,0.9c0.1,0.1,0.2,0.1,0.3,0.1c0.1,0,0.2,0,0.3-0.1c0.1-0.1,0.5-0.3,1.2-0.8c0.6-0.4,1.1-0.8,1.4-1l1.7-1.3
		c0.2-0.2,0.5-0.4,0.9-0.7c0.4-0.3,0.6-0.5,0.7-0.6s0.1-0.2,0.1-0.3c0-0.1-0.1-0.3-0.3-0.5l-0.5-0.7l0-0.1l0.4-0.3l0.1,0
		C414.7,213.7,415.6,214.5,416.5,215z"/>
</g>
<g id="XMLID_3_">
	<path id="XMLID_4_" class="st1" d="M257,439.2c0.3-0.8,0.7-1.5,1.2-2.2c0.6-0.6,1.4-1.1,2.4-1.4s2.1-0.3,3.2,0.1
		c1.4,0.5,2.5,1.3,3.1,2.5c0.6,1.2,0.7,2.5,0.2,3.9c-0.5,1.6-1.4,2.7-2.8,3.4s-2.8,0.8-4.2,0.3c-1-0.3-1.7-0.8-2.3-1.6
		c-0.6-0.8-0.9-1.6-1.1-2.4C256.7,441,256.8,440.1,257,439.2z M259.2,439.1c-0.3,1-0.4,1.8-0.4,2.7c0,0.8,0.2,1.6,0.6,2.2
		s0.9,1,1.6,1.3c0.8,0.3,1.6,0.1,2.3-0.3c0.7-0.5,1.3-1.4,1.7-2.6c0.5-1.5,0.6-2.7,0.3-3.8c-0.3-1.1-1-1.8-2-2.2
		c-0.9-0.3-1.7-0.2-2.4,0.3S259.6,437.9,259.2,439.1z"/>
	<path id="XMLID_7_" class="st1" d="M273.1,448.3l0.1,0.1l-0.1,0.4L273,449c-0.2-0.1-0.6-0.2-1.2-0.3c-0.5-0.2-1.1-0.3-1.7-0.4
		c-0.8-0.2-1.6-0.4-2.5-0.5l-0.1-0.1l0.1-0.4l0.1-0.1c0.7,0.1,1.1,0.2,1.2,0.2s0.2,0,0.3-0.1s0.1-0.1,0.2-0.3s0.2-0.6,0.4-1.3
		s0.4-1.3,0.5-1.7l1-4l-1.4-0.3l-0.1-0.1l0.1-0.3l0.1-0.1l1.5-0.4l0.2-0.6c0.2-0.7,0.3-1.2,0.5-1.6c0.1-0.3,0.3-0.6,0.6-0.9
		s0.6-0.6,1.2-0.9c0.5-0.4,1-0.6,1.4-0.9s0.7-0.3,1-0.4s0.6,0,0.9,0c0.3,0.1,0.5,0.2,0.8,0.4l-0.4,1.7l-0.3,0
		c-0.3-0.4-0.7-0.7-1.2-0.8c-0.4-0.1-0.7-0.1-1,0c-0.3,0.1-0.5,0.3-0.7,0.6c-0.2,0.3-0.4,0.9-0.6,1.6l-0.5,2.2l1.1,0.3
		c0.6,0.1,1.1,0.3,1.7,0.3l0.1,0.1l-0.4,0.9l-0.1,0.1c-0.2-0.1-0.3-0.1-0.4-0.1l-1.4-0.3l-0.8-0.2l-1,4.2c-0.1,0.2-0.2,0.7-0.3,1.5
		s-0.2,1.3-0.3,1.4c0,0.1,0,0.3,0.1,0.3c0.1,0.1,0.1,0.2,0.3,0.2C271.8,448,272.3,448.1,273.1,448.3z"/>
	<path id="XMLID_9_" class="st1" d="M282.5,436.5l-0.1-0.1l0.1-0.4l0.1-0.1l3.1-0.1c0.2,0.2,0.4,0.4,0.6,0.6
		c0.2,0.3,0.4,0.7,0.7,1.4c0.3,0.7,0.7,1.6,1.2,2.8c0.5,1.2,0.9,2.4,1.4,3.6l1.3-1.6l1.5-1.9l2.7-3.6c0.3,0.1,0.5,0.1,0.8,0.1
		c0.2,0,0.4,0,0.8,0l0.1,0.1l0,0.2c-0.4,0.3-1,1-1.9,1.9c-0.9,0.9-1.5,1.7-2,2.2c-0.4,0.5-1,1.2-1.6,2c-0.6,0.8-1,1.3-1.1,1.5
		c-0.1,0.2-0.1,0.4-0.2,0.6l-0.2,1.6l-0.2,1.6c-0.1,0.6-0.1,1.1-0.1,1.3c0,0.3,0,0.4,0.1,0.5s0.2,0.2,0.4,0.2
		c0.2,0.1,0.6,0.2,1.4,0.3l0.1,0.1l-0.1,0.5l-0.1,0.1c0,0-0.7-0.1-1.9-0.3c-0.5-0.1-0.9-0.1-1.2-0.2c-0.2,0-1.2-0.1-3.1-0.3
		l-0.1-0.1l0.1-0.5l0.1-0.1c0.7,0.1,1.1,0.1,1.3,0.1c0.2,0,0.4-0.1,0.5-0.1c0.1-0.1,0.2-0.2,0.2-0.4c0.1-0.2,0.1-0.6,0.2-1.2
		l0.2-1.8l0.2-2c-0.1-0.4-0.5-1.4-1.2-3l-0.8-1.6c-0.2-0.5-0.5-1.1-0.9-1.8c-0.4-0.7-0.7-1.2-0.9-1.4c-0.2-0.3-0.4-0.4-0.5-0.5
		C283.4,436.6,283,436.6,282.5,436.5z"/>
	<path id="XMLID_11_" class="st1" d="M296.5,444.9l-0.4-0.1l-0.1-0.1l0.1-1.3c1.3-0.9,2.6-1.3,3.8-1.3c0.8,0,1.5,0.2,2,0.5
		c0.5,0.3,0.9,0.7,1.1,1.2c0.2,0.5,0.3,1,0.3,1.6l-0.1,2.2l-0.1,3.2c0,0.4,0,0.7,0.1,0.8s0.1,0.2,0.2,0.2c0.1,0,0.2,0.1,0.4,0.1
		l0.6,0.1l0.1,0.1l0,0.4l-0.1,0.1c-0.5-0.1-1-0.1-1.5-0.1c-0.4,0-0.9,0-1.5,0l-0.2-0.2l0.1-1.7l-2.4,1.7c-0.4,0.1-0.8,0.2-1.3,0.2
		c-0.6,0-1.1-0.2-1.5-0.4c-0.4-0.2-0.7-0.5-0.9-0.9c-0.2-0.4-0.3-0.8-0.3-1.4c0-1.1,0.4-1.9,1.1-2.4c0.7-0.6,2.5-1,5.5-1.3
		c0-1.1-0.2-1.8-0.6-2.3s-1.1-0.7-1.9-0.7c-0.4,0-0.8,0-1.1,0.1c-0.3,0.1-0.5,0.2-0.6,0.3S297,444.1,296.5,444.9L296.5,444.9z
		 M301.4,446.8c-2,0.3-3.3,0.6-3.8,0.9s-0.8,1-0.8,1.8c0,1.1,0.5,1.7,1.6,1.7c1,0,1.9-0.5,2.9-1.5L301.4,446.8z"/>
	<path id="XMLID_14_" class="st1" d="M309,442.2l0.2,0.1c0,0.5,0,1.1,0,1.9c0.6-0.5,1.1-1,1.6-1.5c0.1-0.1,0.3-0.2,0.4-0.3
		c0.1-0.1,0.3-0.1,0.7-0.2s0.6-0.1,0.9-0.1c0.5,0,1.1,0.1,1.6,0.3s0.9,0.4,1.2,0.7c0.3,0.3,0.5,0.6,0.6,1.1c0.1,0.4,0.2,0.9,0.2,1.5
		l0.1,1.9c0,0.1,0.1,1,0.2,2.7c0,0.7,0.1,1.1,0.3,1.2c0.1,0.1,0.6,0.2,1.3,0.1l0.1,0.1l0,0.5l-0.1,0.1c-0.9,0-1.5,0-1.8,0
		c-0.2,0-0.7,0.1-1.6,0.1l-0.1-0.1c0.1-0.9,0.1-2.1,0-3.6l-0.1-1.4c0-0.8-0.1-1.5-0.1-1.8c-0.1-0.4-0.2-0.7-0.4-1
		c-0.2-0.3-0.5-0.5-0.8-0.7c-0.3-0.2-0.7-0.2-1.2-0.2c-0.4,0-0.7,0.1-1,0.2c-0.3,0.1-0.6,0.3-0.9,0.5c-0.3,0.2-0.6,0.5-0.7,0.7
		c-0.1,0.2-0.2,0.4-0.3,0.6c0,0.2,0,0.6,0,1.1l0.1,1.9c0,0.2,0,0.7,0.1,1.5c0.1,0.9,0.1,1.4,0.2,1.5c0,0.1,0.1,0.2,0.2,0.3
		c0.1,0.1,0.1,0.1,0.2,0.1c0.1,0,0.5,0,1.2,0l0.1,0.1l0,0.5l-0.1,0.1c-0.9,0-1.8,0-2.6,0c-0.8,0-1.7,0.1-2.6,0.2l-0.1-0.1l0-0.5
		l0.1-0.1c0.7-0.1,1.1-0.1,1.2-0.1c0.1,0,0.2-0.1,0.2-0.1c0.1-0.1,0.1-0.2,0.1-0.3s0-0.6,0-1.4c0-0.8,0-1.4,0-1.8l-0.1-2.1
		c0-0.3,0-0.7-0.1-1.2c0-0.5-0.1-0.8-0.1-0.9c0-0.1-0.1-0.2-0.2-0.2c-0.1,0-0.3-0.1-0.6-0.1l-0.9,0l-0.1-0.1l0-0.5l0.1-0.1
		C306.9,443,308.1,442.6,309,442.2z"/>
	<path id="XMLID_16_" class="st1" d="M329.9,441.1l0.1,0.2c-0.2,0.5-0.4,0.8-0.4,0.9l-2,0.3c0.3,0.4,0.4,0.8,0.5,1.2
		c0.1,0.5,0,1-0.2,1.5c-0.2,0.5-0.4,1-0.8,1.3c-0.4,0.4-0.8,0.7-1.3,1c-0.5,0.3-1.1,0.4-1.7,0.5l-0.5,0.1c-0.4,0.4-0.6,0.7-0.7,0.9
		c-0.1,0.2-0.1,0.4-0.1,0.5c0,0.3,0.2,0.5,0.5,0.6c0.3,0.1,0.9,0.1,1.8,0l2.4-0.3c0.8-0.1,1.3-0.1,1.8,0c0.4,0.1,0.8,0.4,1.1,0.8
		c0.3,0.4,0.5,0.9,0.6,1.4c0.1,0.8-0.1,1.6-0.5,2.4s-1.1,1.5-2,2.1c-0.9,0.5-1.9,0.9-3,1c-0.6,0.1-1.2,0.1-1.8,0
		c-0.6-0.1-1.1-0.2-1.5-0.4c-0.4-0.2-0.8-0.5-1.1-0.9c-0.3-0.4-0.5-0.9-0.5-1.3c0-0.3,0-0.5,0-0.8c0-0.3,0.1-0.6,0.3-1l1.8-1.3
		c-0.6-0.1-1.1-0.3-1.2-0.4c-0.2-0.2-0.3-0.4-0.3-0.6c0-0.3,0-0.6,0.1-1l1.6-1.5c-1-0.1-1.8-0.4-2.2-0.9c-0.4-0.5-0.7-1-0.8-1.7
		c-0.1-0.6,0-1.1,0.2-1.7c0.2-0.6,0.5-1,1-1.4c0.5-0.4,1-0.7,1.6-1c0.6-0.3,1.2-0.4,1.7-0.5c0.9-0.1,1.8,0.1,2.6,0.5
		C328.1,441.4,329.1,441.2,329.9,441.1z M321.6,444.7c0.1,0.4,0.2,0.9,0.4,1.4c0.2,0.5,0.6,0.8,1,1c0.4,0.2,0.9,0.3,1.3,0.2
		c0.6-0.1,1.2-0.4,1.6-0.8s0.6-1.1,0.4-2c-0.1-0.7-0.4-1.4-0.9-1.9c-0.5-0.5-1.1-0.8-1.9-0.7c-0.6,0.1-1.2,0.4-1.5,0.8
		C321.6,443.2,321.5,443.8,321.6,444.7z M325.6,451.4c-1.1,0.1-1.8,0.2-2,0.3c-0.2,0.1-0.4,0.2-0.7,0.5c-0.3,0.3-0.5,0.6-0.7,1
		c-0.2,0.4-0.2,0.8-0.1,1.3c0.1,0.8,0.5,1.4,1.1,1.8c0.7,0.4,1.5,0.6,2.5,0.4c0.7-0.1,1.4-0.3,2-0.7c0.6-0.4,1-0.9,1.2-1.4
		s0.3-1.1,0.3-1.6s-0.2-0.9-0.5-1.2c-0.3-0.3-0.7-0.5-1.1-0.5C327.2,451.2,326.6,451.3,325.6,451.4z"/>
	<path id="XMLID_20_" class="st1" d="M332,445.3c-0.2-0.8-0.2-1.7,0-2.5c0.2-0.8,0.6-1.6,1.4-2.4c0.7-0.7,1.7-1.3,2.8-1.5
		c1.5-0.3,2.8-0.1,3.9,0.6c1.1,0.7,1.8,1.8,2.2,3.3c0.3,1.6,0.1,3-0.7,4.3c-0.8,1.3-2,2.1-3.5,2.4c-1,0.2-1.9,0.1-2.8-0.2
		c-0.9-0.4-1.6-0.9-2.1-1.6C332.5,447,332.2,446.2,332,445.3z M333.8,444.2c0.2,1,0.5,1.8,1,2.5c0.4,0.7,1,1.3,1.6,1.6
		c0.6,0.4,1.3,0.4,2,0.3c0.8-0.2,1.4-0.7,1.8-1.4c0.4-0.8,0.5-1.8,0.2-3.1c-0.3-1.5-0.9-2.6-1.7-3.5c-0.8-0.8-1.7-1.1-2.8-0.9
		c-0.9,0.2-1.5,0.7-1.9,1.5C333.6,441.9,333.5,443,333.8,444.2z"/>
	<path id="XMLID_23_" class="st1" d="M345.4,436.7l0.2,0.1c0.1,0.5,0.3,1.1,0.5,1.8c0.4-0.6,0.8-1.2,1.1-1.9
		c0.1-0.2,0.2-0.3,0.3-0.4c0.1-0.1,0.3-0.2,0.6-0.4s0.6-0.3,0.9-0.4c0.5-0.2,1.1-0.2,1.6-0.2s1,0.2,1.3,0.4c0.3,0.2,0.6,0.5,0.8,0.9
		c0.2,0.4,0.4,0.8,0.6,1.4l0.6,1.8c0,0.1,0.3,1,0.9,2.5c0.2,0.6,0.4,1,0.6,1.1c0.2,0.1,0.6,0,1.3-0.2l0.1,0.1l0.1,0.4l-0.1,0.1
		c-0.9,0.2-1.5,0.4-1.8,0.5c-0.2,0.1-0.7,0.2-1.5,0.6l-0.2-0.1c-0.2-0.9-0.5-2.1-1-3.5l-0.4-1.3c-0.3-0.8-0.5-1.4-0.6-1.7
		c-0.1-0.3-0.4-0.6-0.6-0.9s-0.6-0.4-1-0.4c-0.4-0.1-0.8,0-1.2,0.1c-0.4,0.1-0.6,0.2-0.9,0.4c-0.2,0.2-0.5,0.4-0.7,0.7
		c-0.2,0.3-0.4,0.6-0.5,0.8c-0.1,0.2-0.1,0.5-0.1,0.6c0,0.2,0.1,0.5,0.3,1.1l0.6,1.8c0,0.2,0.2,0.6,0.5,1.4c0.3,0.8,0.5,1.3,0.5,1.4
		c0.1,0.1,0.2,0.2,0.2,0.3c0.1,0,0.2,0.1,0.3,0c0.1,0,0.5-0.1,1.1-0.3l0.1,0.1l0.1,0.4l-0.1,0.1c-0.9,0.2-1.7,0.4-2.5,0.7
		c-0.8,0.2-1.6,0.5-2.4,0.9l-0.1-0.1L345,447l0.1-0.1c0.7-0.2,1-0.4,1.1-0.4c0.1,0,0.1-0.1,0.2-0.2s0.1-0.2,0-0.3s-0.1-0.6-0.3-1.3
		c-0.2-0.8-0.4-1.3-0.5-1.7l-0.6-2c-0.1-0.3-0.2-0.6-0.4-1.1s-0.3-0.7-0.3-0.9c-0.1-0.1-0.1-0.2-0.2-0.2c-0.1,0-0.3,0-0.6,0.1
		l-0.9,0.3l-0.1-0.1l-0.1-0.4l0.1-0.1C343.6,437.9,344.6,437.3,345.4,436.7z"/>
</g>
</svg>
