<?xml version="1.0" encoding="utf-8"?>
<!-- Generator: Adobe Illustrator 19.0.0, SVG Export Plug-In . SVG Version: 6.00 Build 0)  -->
<svg version="1.1" id="Layer_1" xmlns="http://www.w3.org/2000/svg" xmlns:xlink="http://www.w3.org/1999/xlink" x="0px" y="0px"
	 viewBox="0 0 612 235.1" style="enable-background:new 0 0 612 235.1;" xml:space="preserve">
<style type="text/css">
	.st0{fill:#3A54A5;}
	.st1{fill:#F8A41B;}
</style>
<g id="XMLID_1_">
	<g id="XMLID_21_">
		<path id="XMLID_22_" class="st0" d="M293.8,73.2c0,5.8-4.3,9.3-11.2,9.3h-5.9v7.6h-4.9V63.8h10.8
			C289.5,63.8,293.8,67.4,293.8,73.2z M288.9,73.2c0-3.3-2.2-5.2-6.5-5.2h-5.7v10.4h5.7C286.6,78.4,288.9,76.5,288.9,73.2z"/>
		<path id="XMLID_25_" class="st0" d="M315.8,90.1l-5.4-7.7c-0.3,0-0.7,0-1,0h-5.9v7.7h-4.9V63.8h10.8c6.9,0,11.2,3.5,11.2,9.3
			c0,4-2,6.9-5.6,8.3l6,8.6H315.8z M309.2,68h-5.7v10.5h5.7c4.3,0,6.5-2,6.5-5.3C315.7,69.9,313.5,68,309.2,68z"/>
		<path id="XMLID_28_" class="st0" d="M345.8,86v4.1h-19.7V63.8h19.2v4.1h-14.3v6.8h12.7v4h-12.7V86H345.8z"/>
		<path id="XMLID_30_" class="st0" d="M350.1,74.9h10.3v3.9h-10.3V74.9z"/>
		<path id="XMLID_32_" class="st0" d="M364.7,77c0-7.8,6-13.5,14.1-13.5c4.3,0,8,1.5,10.4,4.4l-3.2,3c-1.9-2.1-4.3-3.1-7-3.1
			c-5.4,0-9.4,3.8-9.4,9.2c0,5.4,3.9,9.2,9.4,9.2c2.7,0,5.1-1,7-3.1l3.2,3c-2.4,2.9-6.1,4.4-10.4,4.4
			C370.7,90.5,364.7,84.8,364.7,77z"/>
		<path id="XMLID_34_" class="st0" d="M391.4,77c0-7.8,6-13.5,14.1-13.5c8.1,0,14.1,5.7,14.1,13.5s-6,13.5-14.1,13.5
			C397.4,90.5,391.4,84.7,391.4,77z M414.8,77c0-5.4-3.9-9.2-9.2-9.2c-5.3,0-9.2,3.9-9.2,9.2c0,5.4,3.9,9.2,9.2,9.2
			C410.8,86.2,414.8,82.3,414.8,77z"/>
		<path id="XMLID_37_" class="st0" d="M424.9,63.8h4.9V86h13.7v4.1h-18.6V63.8z"/>
		<path id="XMLID_39_" class="st0" d="M447.4,63.8h4.9V86H466v4.1h-18.6V63.8z"/>
		<path id="XMLID_41_" class="st0" d="M489.5,86v4.1h-19.7V63.8H489v4.1h-14.3v6.8h12.7v4h-12.7V86H489.5z"/>
		<path id="XMLID_43_" class="st0" d="M512.8,76.7h4.6v10.5c-2.7,2.2-6.6,3.3-10.3,3.3C499,90.5,493,84.8,493,77
			c0-7.8,6-13.5,14.2-13.5c4.4,0,8.1,1.5,10.5,4.3l-3.1,3c-2.1-2.1-4.4-3-7.2-3c-5.6,0-9.5,3.8-9.5,9.2c0,5.3,3.9,9.2,9.5,9.2
			c1.9,0,3.7-0.4,5.4-1.3V76.7z"/>
		<path id="XMLID_45_" class="st0" d="M523.8,63.8h4.9v26.3h-4.9V63.8z"/>
		<path id="XMLID_47_" class="st0" d="M552.8,84h-13.1l-2.6,6.1h-5l11.8-26.3h4.8l11.9,26.3h-5.1L552.8,84z M551.2,80.2l-4.9-11.5
			l-4.9,11.5H551.2z"/>
		<path id="XMLID_50_" class="st0" d="M567.9,68h-8.7v-4.1h22.3V68h-8.7v22.1h-4.9V68z"/>
		<path id="XMLID_52_" class="st0" d="M604.8,86v4.1h-19.7V63.8h19.2v4.1H590v6.8h12.7v4H590V86H604.8z"/>
		<path id="XMLID_54_" class="st0" d="M293.8,118.2c0,5.8-4.3,9.3-11.2,9.3h-5.9v7.6h-4.9v-26.3h10.8
			C289.5,108.9,293.8,112.4,293.8,118.2z M288.9,118.2c0-3.3-2.2-5.2-6.5-5.2h-5.7v10.4h5.7C286.6,123.4,288.9,121.5,288.9,118.2z"
			/>
		<path id="XMLID_57_" class="st0" d="M315.8,135.1l-5.4-7.7c-0.3,0-0.7,0-1,0h-5.9v7.7h-4.9v-26.3h10.8c6.9,0,11.2,3.5,11.2,9.3
			c0,4-2,6.9-5.6,8.3l6,8.6H315.8z M309.2,113h-5.7v10.5h5.7c4.3,0,6.5-2,6.5-5.3C315.7,114.9,313.5,113,309.2,113z"/>
		<path id="XMLID_60_" class="st0" d="M324.2,122c0-7.8,6-13.5,14.1-13.5c8.1,0,14.1,5.7,14.1,13.5s-6,13.5-14.1,13.5
			C330.2,135.5,324.2,129.8,324.2,122z M347.6,122c0-5.4-3.9-9.2-9.2-9.2s-9.2,3.9-9.2,9.2c0,5.4,3.9,9.2,9.2,9.2
			S347.6,127.4,347.6,122z"/>
		<path id="XMLID_63_" class="st0" d="M375.6,121.7h4.6v10.5c-2.7,2.2-6.6,3.3-10.3,3.3c-8.1,0-14.1-5.7-14.1-13.5
			c0-7.8,6-13.5,14.2-13.5c4.4,0,8.1,1.5,10.5,4.3l-3.1,3c-2.1-2.1-4.4-3-7.2-3c-5.6,0-9.5,3.8-9.5,9.2c0,5.3,3.9,9.2,9.5,9.2
			c1.9,0,3.7-0.4,5.4-1.3V121.7z"/>
		<path id="XMLID_65_" class="st0" d="M403.8,135.1l-5.4-7.7c-0.3,0-0.7,0-1,0h-5.9v7.7h-4.9v-26.3h10.8c6.9,0,11.2,3.5,11.2,9.3
			c0,4-2,6.9-5.6,8.3l6,8.6H403.8z M397.2,113h-5.7v10.5h5.7c4.3,0,6.5-2,6.5-5.3C403.7,114.9,401.5,113,397.2,113z"/>
		<path id="XMLID_68_" class="st0" d="M431.1,129h-13.1l-2.6,6.1h-5l11.8-26.3h4.8l11.9,26.3h-5.1L431.1,129z M429.5,125.2
			l-4.9-11.5l-4.9,11.5H429.5z"/>
		<path id="XMLID_71_" class="st0" d="M466.3,135.1l0-17.4l-8.6,14.4h-2.2l-8.6-14.2v17.2h-4.7v-26.3h4l10.4,17.4l10.2-17.4h4
			l0,26.3H466.3z"/>
		<path id="XMLID_73_" class="st1" d="M269.8,162.9c0-6.7,5.2-11.7,12.2-11.7c7,0,12.1,5,12.1,11.7s-5.2,11.7-12.1,11.7
			C275,174.6,269.8,169.6,269.8,162.9z M290.9,162.9c0-5.1-3.8-8.8-8.9-8.8c-5.1,0-8.9,3.7-8.9,8.8c0,5.1,3.8,8.8,8.9,8.8
			C287.1,171.7,290.9,167.9,290.9,162.9z"/>
		<path id="XMLID_76_" class="st1" d="M302.4,154.3v8h11.5v2.8h-11.5v9.2h-3.3v-22.9h16.1v2.8H302.4z"/>
		<path id="XMLID_78_" class="st1" d="M337.4,166.4v7.9h-3.2v-8l-9.1-14.9h3.5l7.3,12.1l7.3-12.1h3.2L337.4,166.4z"/>
		<path id="XMLID_80_" class="st1" d="M363,168.6h-12.1l-2.5,5.7h-3.4l10.4-22.9h3.2l10.4,22.9h-3.4L363,168.6z M361.8,166
			l-4.9-11.2L352,166H361.8z"/>
		<path id="XMLID_83_" class="st1" d="M392,151.5v22.9h-2.7l-13.7-17v17h-3.3v-22.9h2.7l13.7,17v-17H392z"/>
		<path id="XMLID_85_" class="st1" d="M414.7,162.7h3.1v8.9c-2.3,1.9-5.5,2.9-8.7,2.9c-7,0-12.2-4.9-12.2-11.7
			c0-6.8,5.2-11.7,12.2-11.7c3.6,0,6.7,1.2,8.8,3.5l-2,2c-1.9-1.8-4-2.6-6.6-2.6c-5.3,0-9.1,3.7-9.1,8.8c0,5,3.8,8.8,9.1,8.8
			c1.9,0,3.7-0.4,5.4-1.5V162.7z"/>
		<path id="XMLID_87_" class="st1" d="M422.2,162.9c0-6.7,5.2-11.7,12.2-11.7c7,0,12.1,5,12.1,11.7s-5.2,11.7-12.1,11.7
			C427.3,174.6,422.2,169.6,422.2,162.9z M443.2,162.9c0-5.1-3.8-8.8-8.9-8.8c-5.1,0-8.9,3.7-8.9,8.8c0,5.1,3.8,8.8,8.9,8.8
			C439.4,171.7,443.2,167.9,443.2,162.9z"/>
		<path id="XMLID_90_" class="st1" d="M471.1,151.5v22.9h-2.7l-13.7-17v17h-3.3v-22.9h2.7l13.7,17v-17H471.1z"/>
	</g>
	<g id="XMLID_2_">
		<path id="XMLID_19_" class="st0" d="M115.5,111.6c-4.7-0.5-9.1-1.5-13.2-2.8v26.6h13.2V111.6z"/>
		<path id="XMLID_18_" class="st0" d="M99.8,108c-4.9-1.8-9.3-4-13.2-6.5v34h13.2V108z"/>
		<path id="XMLID_17_" class="st0" d="M21,105.2c-7,4.5-12.7,6.5-13.7,6.8c-0.1,1.8-0.1,3.6-0.1,5.5c0,6.1,0.5,12.1,1.4,18H21V105.2
			z"/>
		<path id="XMLID_16_" class="st0" d="M147,108.8c-4.1,1.3-8.4,2.2-13.2,2.8v23.9H147V108.8z"/>
		<path id="XMLID_15_" class="st0" d="M131.3,111.9c-2.1,0.2-4.3,0.3-6.6,0.3c-2.3,0-4.5-0.1-6.6-0.3v23.6h13.2V111.9z"/>
		<path id="XMLID_14_" class="st0" d="M36.8,91.6c-4.2,5-8.9,8.9-13.2,11.9v32h13.2V91.6z"/>
		<path id="XMLID_13_" class="st0" d="M48,72.2c-2.2,6.2-5.2,11.6-8.7,16.2v47.1H48V72.2z"/>
		<path id="XMLID_12_" class="st0" d="M68.3,84.5c-4.2-5.5-7-10.6-8.7-14.1v65h8.7V84.5z"/>
		<path id="XMLID_11_" class="st0" d="M84,99.8c-5.3-3.7-9.6-7.9-13.2-12.1v47.8H84V99.8z"/>
		<path id="XMLID_10_" class="st0" d="M225.8,103.5c-4.3-3-8.9-6.9-13.2-11.9v43.9h13.2V103.5z"/>
		<path id="XMLID_9_" class="st0" d="M46.1,65.1l0.4-1.5H61l0.4,1.3c0.6,1.8,15.3,43.4,63.2,43.4c8.4,0,15.8-1.3,22.3-3.5v0h0
			c6-2,11.2-4.8,15.7-7.9v-0.1h0.1c18.3-12.8,25-31.6,25-31.9l0.4-1.3h14.5l0.4,1.5c1.9,7.8,5.2,14.4,9.1,19.8h0.2v0.4
			c10.2,14,24.5,20.7,29.2,22.5C236.9,47.4,186.3,0,124.7,0C63.1,0,12.5,47.4,7.6,107.8C14.2,105.1,39.3,93.3,46.1,65.1z"/>
		<path id="XMLID_8_" class="st0" d="M242.2,117.5c0-1.8,0-3.7-0.1-5.5c-1-0.3-6.7-2.4-13.7-6.8v30.3h12.5
			C241.8,129.6,242.2,123.6,242.2,117.5z"/>
		<path id="XMLID_7_" class="st0" d="M162.8,101.5c-3.9,2.5-8.3,4.7-13.2,6.5v27.5h13.2V101.5z"/>
		<path id="XMLID_6_" class="st0" d="M227.1,146.1h-15.7h-9.9v25.4h-11.6v-25.4h-9.9h-15.7h-15.7h-15.7h-15.7h-15.7H85.3H69.6h-9.9
			v25.4H48v-25.4h-9.9H22.3H10.7c12.8,51.1,59,88.9,114,88.9s101.3-37.9,114-88.9H227.1z"/>
		<path id="XMLID_5_" class="st0" d="M178.5,87.6c-3.5,4.1-7.9,8.3-13.2,12.1v35.8h13.2V87.6z"/>
		<path id="XMLID_4_" class="st0" d="M189.8,70.4c-1.6,3.4-4.4,8.5-8.7,14v51h8.7V70.4z"/>
		<path id="XMLID_3_" class="st0" d="M210,88.4c-3.4-4.6-6.4-9.9-8.7-16.2v63.3h8.7V88.4z"/>
	</g>
</g>
</svg>
