<?xml version="1.0" encoding="utf-8"?>
<!-- Generator: Adobe Illustrator 19.0.0, SVG Export Plug-In . SVG Version: 6.00 Build 0)  -->
<svg version="1.1" id="Layer_1" xmlns="http://www.w3.org/2000/svg" xmlns:xlink="http://www.w3.org/1999/xlink" x="0px" y="0px"
	 viewBox="0 0 612 612" style="enable-background:new 0 0 612 612;" xml:space="preserve">
<style type="text/css">
	.st0{fill:#3A54A5;}
	.st1{fill:#FFFFFF;}
</style>
<g id="XMLID_99_">
	<path id="XMLID_108_" class="st0" d="M306,0C137,0,0,137,0,306s137,306,306,306s306-137,306-306S475,0,306,0z M79.6,306
		c0-4.5,0.1-9,0.4-13.5c4.5-1.7,13.5-5.6,24.1-12.3v59H82C80.5,328.3,79.6,317.3,79.6,306z M109.2,276.8
		c8.4-5.9,17.4-13.5,25.6-23.1v85.4h-25.6V276.8z M139.8,247.4c6.7-8.9,12.5-19.4,16.8-31.5v123.2h-16.8V247.4z M179.3,212.5
		c3.2,6.7,8.6,16.7,16.8,27.4v99.3h-16.8V212.5z M201.2,246.1c6.9,8.1,15.4,16.2,25.6,23.5v69.6h-25.6V246.1z M231.8,272.9
		c7.6,4.9,16.1,9.2,25.6,12.6v53.6h-25.6V272.9z M262.5,287.2c7.9,2.5,16.4,4.4,25.6,5.4v46.4h-25.6V287.2z M293.2,293.2
		c4.2,0.3,8.4,0.6,12.8,0.6c4.4,0,8.7-0.2,12.8-0.6v46h-25.6V293.2z M323.8,292.7c9.2-1.1,17.7-2.9,25.6-5.4v51.9h-25.6V292.7z
		 M354.5,285.5c9.5-3.4,18-7.8,25.6-12.6v66.3h-25.6V285.5z M385.2,269.5c10.3-7.3,18.7-15.5,25.6-23.5v93.2h-25.6V269.5z
		 M415.9,239.7c8.2-10.7,13.7-20.7,16.8-27.3v126.7h-16.8V239.7z M455.3,215.9c4.3,12.1,10.2,22.6,16.8,31.5v91.7h-16.8V215.9z
		 M477.2,253.7c8.2,9.7,17.2,17.3,25.6,23.1v62.3h-25.6V253.7z M507.9,280.2c10.6,6.8,19.7,10.6,24.1,12.3c0.3,4.5,0.4,9,0.4,13.5
		c0,11.3-0.8,22.3-2.4,33.1h-22.1V280.2z M306,79.6c117.6,0,214.3,89.7,225.3,204.4c-11.1-4.8-35.9-17.7-54.1-42.8v-0.7h-0.5
		c-7.6-10.6-14-23.4-17.7-38.6l-0.7-2.9H430l-0.9,2.5c-0.2,0.6-13.2,37.2-48.8,62h-0.2v0.1c-8.8,6.1-18.9,11.5-30.6,15.5h-0.1v0
		c-12.7,4.3-27.1,6.9-43.5,6.9c-93.3,0-122-81.1-123.1-84.5l-0.9-2.6h-28.3L153,202c-12.5,51.6-56.4,75.1-72.3,82.1
		C91.7,169.3,188.4,79.6,306,79.6z M306,532.4c-106.5,0-195.8-73.5-219.9-172.6h20.6h30.7h19.4v49.4h22.6v-49.4h19.4h30.7H260h30.7
		h30.7H352h30.7h30.7h19.4v49.4h22.6v-49.4h19.4h30.7h20.6C501.8,458.8,412.5,532.4,306,532.4z"/>
	<g>
		<path class="st0" d="M345,374.7h0.4l0.1,0.1c0,0.5,0,0.9,0.1,1.2c0.2,0.3,0.5,0.5,0.9,0.7c0.4,0.2,0.9,0.3,1.3,0.3
			c0.6,0,1.1-0.2,1.4-0.5c0.4-0.3,0.5-0.7,0.5-1.2c0-0.2-0.1-0.5-0.2-0.6c-0.1-0.2-0.3-0.3-0.6-0.4c-0.3-0.1-0.7-0.3-1.4-0.4
			c-0.6-0.1-1-0.2-1.2-0.3c-0.2-0.1-0.5-0.2-0.7-0.4c-0.2-0.2-0.4-0.4-0.5-0.7c-0.1-0.3-0.2-0.6-0.2-0.9c0-0.8,0.3-1.4,0.9-1.8
			c0.6-0.5,1.4-0.7,2.3-0.7c0.4,0,0.8,0.1,1.2,0.2c0.4,0.1,0.8,0.2,1,0.3l0.1,0.1c0,0.2-0.1,0.8-0.1,1.8l-0.1,0.1H350l-0.1-0.1
			c0-0.3-0.1-0.6-0.1-0.7c0-0.1-0.1-0.3-0.3-0.5c-0.2-0.2-0.4-0.3-0.7-0.4c-0.3-0.1-0.6-0.2-1-0.2c-0.3,0-0.6,0.1-0.9,0.2
			s-0.4,0.3-0.6,0.5c-0.1,0.2-0.2,0.5-0.2,0.8c0,0.2,0,0.4,0.1,0.6c0.1,0.2,0.2,0.3,0.4,0.4c0.2,0.1,0.4,0.2,0.6,0.2l0.9,0.2
			c0.8,0.2,1.4,0.4,1.7,0.5c0.3,0.1,0.6,0.4,0.8,0.6c0.2,0.3,0.3,0.6,0.3,1c0,0.8-0.3,1.5-1,2c-0.6,0.6-1.5,0.8-2.5,0.8
			c-0.4,0-0.8,0-1.3-0.1s-1-0.2-1.4-0.3l0-0.1l0.1-0.6c0-0.2,0-0.4,0.1-0.5C344.9,375.7,344.9,375.4,345,374.7L345,374.7z"/>
		<path class="st0" d="M354.7,369.1l0.2,0.1c-0.1,0.7-0.1,1.7-0.1,2.8v1.9c0,0.1,0,0.5,0,1.2c0,0.7,0,1.1,0.1,1.2
			c0,0.1,0.1,0.2,0.1,0.2c0.1,0.1,0.1,0.1,0.2,0.1c0.1,0,0.4,0,0.9,0.1l0.1,0.1v0.4l-0.1,0.1c-0.7,0-1.4-0.1-2.1-0.1
			c-0.7,0-1.3,0-2,0.1l-0.1-0.1v-0.4l0.1-0.1c0.6,0,0.9-0.1,0.9-0.1c0.1,0,0.1-0.1,0.2-0.1c0.1-0.1,0.1-0.1,0.1-0.2
			c0-0.1,0-0.5,0.1-1.1c0-0.6,0-1.1,0-1.4v-1.7c0-0.2,0-0.5,0-0.9c0-0.4,0-0.6-0.1-0.7s-0.1-0.2-0.1-0.2c-0.1,0-0.2-0.1-0.4-0.1
			l-0.7,0l-0.1-0.1v-0.4l0.1-0.1C353.1,369.6,354,369.4,354.7,369.1z M354,365.3c0.3,0,0.5,0.1,0.7,0.3c0.2,0.2,0.3,0.4,0.3,0.7
			c0,0.3-0.1,0.5-0.3,0.7s-0.4,0.3-0.7,0.3c-0.3,0-0.5-0.1-0.7-0.3c-0.2-0.2-0.3-0.4-0.3-0.7c0-0.3,0.1-0.5,0.3-0.7
			C353.5,365.4,353.7,365.3,354,365.3z"/>
		<path class="st0" d="M359.5,369.1l0.2,0.1c0,0.4-0.1,0.9-0.1,1.5c0.5-0.4,0.9-0.8,1.3-1.1c0.1-0.1,0.2-0.2,0.3-0.2
			c0.1-0.1,0.3-0.1,0.5-0.2c0.2-0.1,0.5-0.1,0.7-0.1c0.4,0,0.9,0.1,1.3,0.3c0.4,0.2,0.7,0.4,0.9,0.6c0.2,0.2,0.4,0.5,0.4,0.9
			s0.1,0.7,0.1,1.2v1.5c0,0.1,0,0.8,0,2.1c0,0.5,0.1,0.9,0.2,1c0.1,0.1,0.5,0.2,1.1,0.2l0.1,0.1v0.4l-0.1,0.1
			c-0.7,0-1.2-0.1-1.5-0.1c-0.1,0-0.6,0-1.2,0.1l-0.1-0.1c0.1-0.7,0.1-1.7,0.1-2.9v-1.1c0-0.7,0-1.2,0-1.5c0-0.3-0.1-0.6-0.3-0.8
			c-0.2-0.2-0.4-0.4-0.6-0.6c-0.3-0.1-0.6-0.2-1-0.2c-0.3,0-0.5,0-0.8,0.1c-0.2,0.1-0.4,0.2-0.7,0.4c-0.3,0.2-0.5,0.4-0.6,0.5
			c-0.1,0.2-0.2,0.3-0.2,0.5c0,0.1,0,0.4,0,0.9v1.5c0,0.1,0,0.5,0,1.2c0,0.7,0,1.1,0.1,1.2c0,0.1,0.1,0.2,0.1,0.2
			c0.1,0.1,0.1,0.1,0.2,0.1c0.1,0,0.4,0,0.9,0.1l0.1,0.1v0.4l-0.1,0.1c-0.7,0-1.4-0.1-2.1-0.1c-0.7,0-1.3,0-2,0.1l-0.1-0.1v-0.4
			l0.1-0.1c0.6,0,0.9-0.1,0.9-0.1c0.1,0,0.1-0.1,0.2-0.1c0.1-0.1,0.1-0.1,0.1-0.2s0-0.5,0.1-1.1c0-0.6,0-1.1,0-1.4v-1.7
			c0-0.2,0-0.5,0-0.9c0-0.4,0-0.6-0.1-0.7c0-0.1-0.1-0.2-0.1-0.2c-0.1,0-0.2-0.1-0.4-0.1l-0.7,0l-0.1-0.1v-0.4l0.1-0.1
			C357.9,369.6,358.8,369.4,359.5,369.1z"/>
		<path class="st0" d="M374.2,376.3l-0.3,0.6c-0.7,0.4-1.6,0.6-2.5,0.6c-1.3,0-2.2-0.4-2.9-1.1c-0.7-0.7-1-1.7-1-2.9
			c0-0.5,0.1-1,0.2-1.4c0.1-0.4,0.3-0.8,0.4-1c0.2-0.3,0.4-0.5,0.6-0.6c0.2-0.2,0.6-0.4,1.1-0.7c0.5-0.3,0.9-0.5,1.2-0.6
			c0.3-0.1,0.6-0.1,1.1-0.1c0.9,0,1.6,0.2,2.2,0.5c-0.1,0.6-0.2,1.4-0.2,2.1l-0.1,0.1h-0.3l-0.1-0.1c0-0.5-0.1-0.8-0.1-1
			c0-0.2-0.3-0.3-0.7-0.5c-0.4-0.2-0.8-0.3-1.3-0.3s-0.9,0.1-1.2,0.3c-0.4,0.2-0.6,0.5-0.8,1c-0.2,0.4-0.3,1-0.3,1.6
			c0,0.5,0.1,1,0.2,1.5c0.1,0.5,0.3,0.9,0.6,1.2c0.2,0.3,0.6,0.6,1,0.8c0.4,0.2,0.8,0.3,1.3,0.3c0.3,0,0.6,0,0.9-0.1
			c0.3-0.1,0.6-0.2,1-0.4L374.2,376.3z"/>
		<path class="st0" d="M382.1,376l-0.3,0.6c-0.6,0.4-1.1,0.6-1.6,0.7c-0.5,0.1-0.9,0.2-1.2,0.2c-0.7,0-1.3-0.1-1.9-0.4
			s-1.1-0.7-1.5-1.4c-0.4-0.6-0.6-1.4-0.6-2.3c0-0.6,0.1-1.1,0.2-1.6c0.1-0.5,0.3-0.8,0.5-1.1c0.2-0.2,0.4-0.5,0.8-0.8
			c0.4-0.3,0.8-0.5,1.2-0.7s0.9-0.3,1.4-0.3c0.7,0,1.3,0.2,1.8,0.5c0.5,0.3,0.9,0.7,1.1,1.2c0.2,0.5,0.3,1,0.3,1.6
			c0,0.2,0,0.3,0,0.5l-0.1,0.1c-0.4,0.1-0.9,0.1-1.6,0.2c-0.7,0-1.1,0-1.3,0h-2.7c0,1.2,0.3,2,0.9,2.6c0.6,0.6,1.3,0.8,2.1,0.8
			c0.4,0,0.8-0.1,1.1-0.2c0.4-0.1,0.8-0.3,1.2-0.6L382.1,376z M376.6,372.5c0.1,0,0.5,0,1.2,0.1c0.7,0,1.2,0,1.5,0
			c0.8,0,1.3,0,1.4,0c0-0.1,0-0.2,0-0.3c0-0.9-0.2-1.5-0.5-2c-0.4-0.4-0.8-0.6-1.5-0.6c-0.7,0-1.2,0.2-1.6,0.7
			S376.6,371.5,376.6,372.5z"/>
		<path class="st0" d="M387.7,377.3l-0.1-0.1v-0.4l2.9-3c1.2-1.2,1.9-2.2,2.3-2.9c0.3-0.7,0.5-1.3,0.5-1.9c0-0.7-0.2-1.3-0.6-1.7
			c-0.4-0.5-1-0.7-1.7-0.7c-0.5,0-0.9,0.1-1.2,0.2c-0.3,0.1-0.6,0.3-0.7,0.5c-0.1,0.2-0.3,0.7-0.5,1.5l-0.1,0.1h-0.4l-0.1-0.1
			c0.1-0.8,0.2-1.5,0.3-2.3c0.5-0.5,1-0.9,1.5-1c0.5-0.1,0.9-0.2,1.5-0.2c0.6,0,1.2,0.1,1.7,0.3s1,0.6,1.3,1.1
			c0.3,0.5,0.5,1.1,0.5,1.8c0,0.5-0.1,1-0.3,1.5c-0.2,0.5-0.5,1-0.9,1.5c-0.4,0.5-0.9,1-1.5,1.7l-2.7,2.7h3.4c1,0,1.9,0,2.6-0.1
			l0.1,0.1c0,0.2-0.1,0.4-0.1,0.8c0,0.3,0,0.5,0.1,0.7l-0.1,0.1c-0.4,0-1,0-1.9-0.1c-0.8,0-1.4,0-1.7,0c-0.6,0-1.3,0-2.2,0
			C388.6,377.3,388,377.3,387.7,377.3z"/>
		<path class="st0" d="M396.5,372c0-1,0.1-1.9,0.2-2.7c0.1-0.8,0.3-1.5,0.7-2.2c0.4-0.6,0.8-1.1,1.3-1.4c0.5-0.3,1.1-0.5,1.8-0.5
			c0.8,0,1.4,0.2,2,0.6c0.6,0.4,1,1,1.2,1.8c0.3,0.8,0.4,1.9,0.4,3.3c0,2.3-0.3,3.9-1,5c-0.7,1.1-1.7,1.6-2.9,1.6
			c-0.6,0-1.2-0.1-1.6-0.4c-0.5-0.3-0.9-0.7-1.2-1.2c-0.3-0.5-0.5-1.1-0.6-1.8C396.6,373.5,396.5,372.8,396.5,372z M398,371.5
			c0,1.1,0.1,2.1,0.2,3c0.2,0.9,0.4,1.5,0.8,1.9c0.4,0.4,0.8,0.6,1.4,0.6c0.5,0,0.9-0.2,1.3-0.5c0.3-0.3,0.6-0.9,0.7-1.8
			c0.2-0.8,0.2-1.9,0.2-3.1c0-1.9-0.2-3.4-0.6-4.3c-0.4-0.9-1-1.4-1.8-1.4c-0.7,0-1.3,0.4-1.7,1.1S398,369.2,398,371.5z"/>
		<path class="st0" d="M405.2,372c0-1,0.1-1.9,0.2-2.7c0.1-0.8,0.3-1.5,0.7-2.2c0.4-0.6,0.8-1.1,1.3-1.4c0.5-0.3,1.1-0.5,1.8-0.5
			c0.8,0,1.4,0.2,2,0.6c0.6,0.4,1,1,1.2,1.8c0.3,0.8,0.4,1.9,0.4,3.3c0,2.3-0.3,3.9-1,5c-0.7,1.1-1.7,1.6-2.9,1.6
			c-0.6,0-1.2-0.1-1.6-0.4c-0.5-0.3-0.9-0.7-1.2-1.2c-0.3-0.5-0.5-1.1-0.6-1.8C405.3,373.5,405.2,372.8,405.2,372z M406.7,371.5
			c0,1.1,0.1,2.1,0.2,3c0.2,0.9,0.4,1.5,0.8,1.9c0.4,0.4,0.8,0.6,1.4,0.6c0.5,0,0.9-0.2,1.3-0.5c0.3-0.3,0.6-0.9,0.7-1.8
			c0.2-0.8,0.2-1.9,0.2-3.1c0-1.9-0.2-3.4-0.6-4.3c-0.4-0.9-1-1.4-1.8-1.4c-0.7,0-1.3,0.4-1.7,1.1S406.7,369.2,406.7,371.5z"/>
		<path class="st0" d="M414.3,377c-0.1-0.7-0.3-1.5-0.6-2.4l0-0.1l0.3-0.1l0.1,0.1c0.2,0.5,0.4,1,0.6,1.3c0.2,0.3,0.6,0.6,1,0.8
			c0.4,0.2,0.9,0.3,1.4,0.3c0.6,0,1.1-0.1,1.5-0.4c0.4-0.3,0.6-0.6,0.8-1.1c0.2-0.4,0.3-1,0.3-1.5c0-0.8-0.2-1.4-0.6-1.8
			c-0.4-0.4-0.9-0.6-1.6-0.6c-0.2,0-0.5,0-0.6,0.1c-0.2,0-0.5,0.1-0.9,0.3l-0.1-0.1l0.2-0.9c0.5,0,0.8,0,0.9,0
			c0.7,0,1.2-0.2,1.6-0.7c0.4-0.5,0.6-1,0.6-1.7c0-0.6-0.2-1-0.6-1.4c-0.4-0.4-0.9-0.6-1.5-0.6c-0.4,0-0.8,0.1-1.1,0.2
			c-0.4,0.2-0.6,0.4-0.9,0.6c-0.1,0.2-0.3,0.6-0.5,1.1l-0.1,0.1h-0.4l-0.1-0.1l0.5-2c0.7-0.8,1.7-1.2,2.9-1.2c0.9,0,1.7,0.2,2.2,0.7
			c0.6,0.5,0.9,1.1,0.9,1.9c0,0.6-0.2,1.1-0.5,1.6c-0.3,0.5-0.8,0.9-1.4,1.3c1,0.1,1.7,0.4,2.1,0.9c0.4,0.5,0.6,1,0.6,1.7
			c0,1.1-0.5,2.1-1.5,2.9c-1,0.9-2.1,1.3-3.4,1.3c-0.4,0-0.7,0-1.1-0.1C415.2,377.3,414.8,377.2,414.3,377z"/>
	</g>
	<g id="XMLID_25_">
		<path id="XMLID_26_" class="st1" d="M83.6,130.2l0.3,0c0.9,0.8,2.6,2.1,5.1,3.9l0,0.2l-0.6,0.8l-0.2,0l-1.7-0.9
			c-0.9-0.5-1.4-0.8-1.7-0.9c-0.2-0.1-0.4-0.1-0.6,0c-0.2,0.1-0.5,0.4-1,0.9c-0.5,0.6-1,1.2-1.6,2l-2.3,3.1c2.4,1.9,3.9,3,4.2,3.3
			l9.7,7l3.3,2.3c1.3,0.9,2.1,1.5,2.5,1.7c0.4,0.2,0.7,0.3,0.9,0.3c0.2,0,0.4-0.2,0.7-0.4c0.3-0.2,0.9-0.9,1.8-2.1l0.2,0l0.8,0.6
			l0,0.2c-2.2,2.8-3.3,4.3-3.6,4.7c-0.3,0.4-1.4,2-3.3,4.8l-0.2,0l-0.8-0.6l0-0.2c0.7-1.1,1.2-1.8,1.3-2.2c0.2-0.4,0.3-0.7,0.2-0.9
			c0-0.2-0.2-0.5-0.5-0.8c-0.3-0.3-1-0.9-2.2-1.8l-3.5-2.6l-9.7-7c-0.2-0.1-1.7-1.1-4.4-3l-1.8,2.5c-0.7,1-1.4,1.9-1.9,2.7
			c-0.5,0.8-0.7,1.3-0.6,1.5c0.1,0.2,0.6,0.8,1.6,1.6l1.4,1.3l0,0.3l-0.6,0.8l-0.2,0c-2.7-1.9-4.5-3.1-5.3-3.6l0-0.3
			c1.5-1.9,3.9-5,7.1-9.5C80.1,135.3,82.4,132.1,83.6,130.2z"/>
		<path id="XMLID_28_" class="st1" d="M89.1,121.6l0.4-0.1c1.1,1.2,3.4,3.3,7,6.4l3.8,3.4c0.1-1.5,0.1-2.9,0-4.3c0-0.4,0-0.7,0.1-1
			c0.1-0.3,0.3-0.7,0.5-1.2c0.3-0.5,0.6-1,1-1.5c0.7-0.8,1.5-1.4,2.5-1.9c1-0.5,1.8-0.7,2.6-0.7c0.8,0,1.5,0.2,2.2,0.6
			c0.7,0.4,1.5,1,2.4,1.7l2.7,2.4c0.2,0.2,1.5,1.3,3.9,3.3c1,0.8,1.7,1.2,2,1.2c0.4,0,1-0.6,2-1.7l0.2,0l0.7,0.6l0,0.2
			c-1.2,1.2-2.1,2.1-2.5,2.5c-0.2,0.2-0.8,1-1.9,2.4l-0.3,0c-1.2-1.3-2.9-2.9-5-4.8l-2-1.8c-1.2-1.1-2.1-1.8-2.7-2.2
			c-0.6-0.4-1.2-0.7-1.9-0.8c-0.7-0.1-1.4,0-2,0.2c-0.7,0.3-1.3,0.7-1.9,1.4c-0.6,0.7-1,1.4-1.3,2c-0.2,0.6-0.3,1.4-0.3,2.3
			c0,0.9,0.1,1.5,0.4,1.9c0.2,0.4,0.8,0.9,1.6,1.7l2.7,2.4c0.2,0.2,1,0.8,2.2,1.9c1.3,1,2,1.6,2.3,1.8c0.2,0.1,0.5,0.2,0.6,0.2
			c0.2,0,0.3-0.1,0.5-0.2c0.1-0.1,0.7-0.6,1.6-1.5l0.2,0l0.6,0.6l0,0.2c-1.2,1.2-2.4,2.4-3.4,3.6c-1,1.2-2.1,2.5-3.1,3.8l-0.3,0
			l-0.6-0.6v-0.2c0.8-1.1,1.3-1.7,1.4-1.8c0.1-0.2,0.1-0.3,0.1-0.5c0-0.2-0.1-0.4-0.3-0.6c-0.2-0.2-0.8-0.8-1.9-1.9
			c-1.1-1-1.9-1.8-2.5-2.3l-8-7.1l-3.3-2.8c-1.2-1-2-1.6-2.5-2c-0.5-0.4-0.8-0.5-0.9-0.5c-0.1,0-0.3,0-0.5,0.2
			c-0.2,0.1-0.7,0.7-1.7,1.8l-0.3,0l-0.6-0.6l0-0.2C87.4,125.4,88.5,123.4,89.1,121.6z"/>
		<path id="XMLID_30_" class="st1" d="M134.3,114.4l0.5,1.5c-0.4,1.6-0.9,3-1.5,3.9c-0.6,1-1.2,1.8-1.9,2.4c-1.2,1.1-2.5,2-4.1,2.5
			c-1.5,0.6-3.1,0.6-4.9,0.1c-1.7-0.5-3.3-1.5-4.8-3.1c-1-1-1.8-2.1-2.3-3.2c-0.5-1.1-0.9-2-1-2.6c-0.1-0.7-0.1-1.6,0.1-2.7
			c0.2-1.1,0.5-2.2,1-3.2c0.5-1,1.1-1.9,2-2.8c1.2-1.1,2.5-1.9,3.9-2.2c1.4-0.3,2.8-0.2,4,0.3c1.2,0.5,2.3,1.3,3.2,2.3
			c0.3,0.3,0.6,0.6,0.8,0.9l0,0.3c-0.5,0.8-1.3,1.8-2.4,2.9c-1.1,1.1-1.8,1.9-2.2,2.2l-4.8,4.6c2,2,3.9,3.1,5.9,3.1
			c1.9,0,3.6-0.7,5.1-2.1c0.7-0.7,1.2-1.4,1.7-2.3c0.4-0.8,0.8-1.8,1.1-2.9L134.3,114.4z M118.9,117.4c0.2-0.1,0.9-0.8,2.2-1.9
			c1.2-1.1,2.1-1.9,2.7-2.5c1.4-1.3,2.2-2.1,2.4-2.5c-0.2-0.2-0.4-0.4-0.5-0.6c-1.5-1.5-2.9-2.4-4.2-2.5c-1.3-0.2-2.6,0.3-3.6,1.3
			c-1.2,1.1-1.7,2.4-1.6,3.9C116.5,114.2,117.3,115.7,118.9,117.4z"/>
		<path id="XMLID_33_" class="st1" d="M128.8,84.7c2.8-2,4.6-3.2,5.4-3.8c1-0.8,2.2-1.7,3.4-2.7c1.3-1.1,2.2-1.7,2.5-1.9
			c1.5-1.1,2.9-1.9,4.2-2.3c1.2-0.4,2.5-0.5,3.8-0.1c1.3,0.4,2.4,1.1,3.3,2.3c0.7,1,1.2,2.1,1.4,3.4c0.2,1.3,0.2,2.5-0.2,3.8
			c-0.3,1.3-0.8,2.3-1.5,3.3c-0.6,0.9-1.4,1.7-2.3,2.4c-0.7,0.5-1.5,1-2.5,1.5l-1-0.8l0-0.3c1-0.4,1.7-0.8,2.2-1.2
			c1.4-1.1,2.3-2.4,2.4-4c0.2-1.6-0.3-3.1-1.4-4.6c-1.1-1.5-2.4-2.4-4-2.6c-1.6-0.2-3.3,0.3-5.1,1.7c-1,0.7-2,1.7-2.9,3
			c0.5,0.9,2,3,4.4,6.3l5.7,7.7l2.4,3.2c0.9,1.2,1.6,2,1.9,2.3c0.3,0.3,0.6,0.5,0.8,0.6c0.2,0,0.5,0,0.8-0.1
			c0.4-0.1,1.1-0.6,2.3-1.4l0.2,0l0.6,0.8l0,0.2c-2.9,2-4.5,3.1-4.8,3.4c-0.4,0.3-1.9,1.5-4.6,3.6l-0.2,0l-0.6-0.8l0.1-0.2
			c1-0.8,1.6-1.4,1.9-1.7c0.3-0.3,0.5-0.6,0.5-0.8c0-0.2,0-0.5-0.2-0.9c-0.2-0.4-0.7-1.2-1.6-2.4l-2.6-3.5l-5.7-7.7l-2.4-3.2
			c-0.9-1.2-1.6-2-1.9-2.4c-0.3-0.3-0.6-0.5-0.8-0.6c-0.2,0-0.5,0-0.8,0.1c-0.4,0.1-1.1,0.6-2.3,1.4l-0.2,0l-0.6-0.8L128.8,84.7z"/>
		<path id="XMLID_35_" class="st1" d="M161.6,73.4l0.5,0c0.3,0.7,1,2,2.1,3.7l0.3-2.5c0.1-0.8,0.2-1.5,0.4-2c0.1-0.5,0.4-1,0.7-1.4
			c0.3-0.4,0.7-0.8,1.2-1.1c0.5-0.3,1.1-0.5,1.6-0.6l0.3,0.2c0.8,1.7,1.5,3.1,2.2,4.3l-0.8,0.5c-1.1-0.8-2.2-0.9-3.3-0.2
			c-0.7,0.4-1.2,1.1-1.5,1.9s-0.3,1.6,0,2.4c0.2,0.8,0.7,1.7,1.4,2.8l1.2,1.9c0.2,0.3,0.8,1.2,1.7,2.5c0.9,1.3,1.4,2.1,1.6,2.3
			c0.2,0.2,0.4,0.3,0.5,0.3c0.2,0,0.4,0,0.6-0.1c0.2-0.1,1.1-0.5,2.6-1.4l0.2,0l0.5,0.7l-0.1,0.3c-1.6,0.9-3.3,1.8-4.9,2.9
			c-1.3,0.8-2.7,1.7-4.1,2.7l-0.3-0.1l-0.5-0.7l0.1-0.2c1.1-0.8,1.7-1.2,1.8-1.3s0.2-0.3,0.2-0.5c0-0.2,0-0.4-0.1-0.6
			c-0.1-0.3-0.5-1-1.3-2.3c-0.7-1.3-1.3-2.3-1.7-2.9l-2.1-3.4c-0.3-0.5-0.7-1.1-1.3-1.9c-0.5-0.8-0.9-1.2-1-1.4
			c-0.1-0.2-0.3-0.2-0.5-0.2c-0.2,0-0.5,0.2-1,0.4l-1.5,0.9l-0.2,0l-0.5-0.8l0.1-0.2C158.8,76.5,160.4,74.9,161.6,73.4z"/>
		<path id="XMLID_37_" class="st1" d="M193.5,74.5l0.1,1.6c-0.8,1.5-1.7,2.6-2.5,3.4c-0.9,0.8-1.7,1.3-2.5,1.8
			c-1.5,0.8-3,1.2-4.6,1.3c-1.6,0.1-3.2-0.3-4.7-1.2c-1.5-0.9-2.8-2.3-3.8-4.3c-0.7-1.3-1.1-2.5-1.3-3.7c-0.2-1.2-0.3-2.1-0.2-2.8
			c0.1-0.7,0.4-1.5,0.9-2.6c0.5-1,1.1-2,1.9-2.8c0.7-0.8,1.6-1.6,2.7-2.1c1.5-0.8,2.9-1.1,4.4-1c1.5,0.1,2.7,0.6,3.7,1.4
			c1,0.8,1.8,1.8,2.5,3c0.2,0.4,0.4,0.7,0.5,1.1l-0.1,0.3c-0.7,0.6-1.8,1.3-3.1,2.1c-1.4,0.8-2.3,1.3-2.7,1.5l-5.8,3.1
			c1.3,2.5,3,4,4.8,4.6c1.9,0.5,3.7,0.3,5.5-0.6c0.8-0.4,1.6-1,2.2-1.7c0.6-0.7,1.2-1.5,1.8-2.5L193.5,74.5z M177.9,73.2
			c0.2-0.1,1.1-0.5,2.6-1.2c1.5-0.7,2.6-1.3,3.3-1.6c1.7-0.9,2.7-1.5,3-1.7c-0.1-0.3-0.3-0.5-0.3-0.7c-1-1.9-2.1-3.1-3.4-3.6
			c-1.2-0.5-2.5-0.4-3.9,0.3c-1.4,0.8-2.3,1.9-2.6,3.3C176.5,69.4,176.9,71.2,177.9,73.2z"/>
		<path id="XMLID_40_" class="st1" d="M193.6,68.1l-0.1-0.3l-0.3-2.9l10.1-4.5l0.1,0.3l0.2,2.9L193.6,68.1z"/>
		<path id="XMLID_42_" class="st1" d="M234.4,58l-0.1,2.1c-2.4,2.5-5.2,4.3-8.4,5.4c-4.7,1.6-8.9,1.6-12.8,0c-3.8-1.6-6.5-4.6-8-8.9
			c-1-3-1.2-5.8-0.5-8.5c0.7-2.7,2-5,4-7c2-1.9,4.5-3.4,7.5-4.4c1.7-0.6,3.5-1,5.3-1.2c1.8-0.2,3.4-0.3,4.7-0.2l0.2,0.1
			c0,0.8,0.3,2.7,1,5.7l-0.1,0.2l-0.9,0.3l-0.2-0.1l-1.3-3.2c-1.2-0.4-2.6-0.6-4-0.6c-1.5,0-3,0.3-4.4,0.8c-2.2,0.8-4,1.9-5.4,3.5
			c-1.4,1.5-2.3,3.4-2.6,5.5c-0.3,2.1-0.1,4.5,0.8,7c0.9,2.6,2.3,4.7,4.1,6.2c1.8,1.6,3.9,2.5,6.2,2.9c2.3,0.4,4.8,0.1,7.4-0.8
			c1.2-0.4,2.2-0.9,3.2-1.5c1-0.6,1.8-1.2,2.4-1.7c0.6-0.6,1.1-1.2,1.6-1.9L234.4,58z"/>
		<path id="XMLID_44_" class="st1" d="M235.2,51.8c-0.4-1.6-0.4-3.2-0.1-4.8c0.3-1.6,1.1-3.2,2.5-4.6c1.4-1.5,3.2-2.5,5.4-3
			c2.8-0.7,5.3-0.3,7.5,1c2.2,1.4,3.6,3.4,4.3,6.2c0.7,3.1,0.3,5.8-1.2,8.3c-1.6,2.5-3.8,4-6.6,4.7c-1.9,0.4-3.7,0.3-5.4-0.3
			c-1.7-0.7-3.1-1.6-4.1-2.9C236.3,55,235.6,53.5,235.2,51.8z M238.6,49.6c0.4,1.9,1.1,3.5,1.9,4.8c0.8,1.4,1.9,2.4,3.1,3
			c1.3,0.6,2.5,0.8,3.9,0.5c1.6-0.4,2.7-1.3,3.5-2.8c0.7-1.5,0.8-3.5,0.2-6c-0.7-2.8-1.8-5-3.3-6.6c-1.5-1.5-3.4-2.1-5.5-1.6
			c-1.7,0.4-2.9,1.4-3.6,2.8C238.1,45.3,238.1,47.2,238.6,49.6z"/>
		<path id="XMLID_47_" class="st1" d="M260.5,25l0.4,0.2c0.1,1.6,0.6,4.7,1.3,9.4l2.1,12.7c0,0.3,0.2,1.2,0.6,2.9
			c0.3,1.6,0.5,2.5,0.6,2.8c0.1,0.3,0.2,0.4,0.4,0.5c0.1,0.1,0.3,0.2,0.5,0.2c0.2,0,0.9-0.1,2.2-0.2l0.2,0.1l0.1,0.9l-0.1,0.2
			c-1.7,0.2-3.3,0.4-4.9,0.7c-1.6,0.3-3.2,0.6-4.8,1l-0.2-0.2l-0.1-0.9l0.2-0.2c1.3-0.3,2-0.5,2.2-0.6c0.2-0.1,0.3-0.2,0.4-0.3
			c0.1-0.1,0.2-0.4,0.2-0.6c0-0.3-0.1-1.2-0.3-2.6c-0.2-1.5-0.3-2.6-0.5-3.4L259.2,37l-0.8-4.3c-0.3-1.5-0.5-2.5-0.7-3.1
			c-0.1-0.6-0.3-0.9-0.4-1s-0.3-0.2-0.5-0.2c-0.2,0-1,0.1-2.5,0.3l-0.2-0.2l-0.1-0.9l0.1-0.2C256.8,26.8,258.9,26,260.5,25z"/>
		<path id="XMLID_49_" class="st1" d="M273.7,23.2l0.4,0.2c0,1.6,0.3,4.7,0.9,9.4l1.5,12.8c0,0.3,0.2,1.3,0.4,2.9
			c0.2,1.6,0.4,2.6,0.5,2.8s0.2,0.5,0.3,0.6c0.1,0.1,0.3,0.2,0.5,0.2c0.2,0,0.9,0,2.2-0.1l0.2,0.1l0.1,0.9l-0.1,0.2
			c-1.7,0.1-3.4,0.2-4.9,0.4c-1.6,0.2-3.2,0.4-4.9,0.7l-0.2-0.2l-0.1-0.9l0.2-0.2c1.3-0.2,2-0.4,2.2-0.4c0.2-0.1,0.3-0.2,0.4-0.3
			c0.1-0.1,0.2-0.4,0.2-0.6c0-0.3,0-1.2-0.1-2.7c-0.1-1.5-0.2-2.6-0.3-3.4l-1.3-10.6l-0.6-4.3c-0.2-1.5-0.4-2.5-0.5-3.1
			c-0.1-0.6-0.2-0.9-0.3-1c-0.1-0.1-0.2-0.2-0.5-0.2s-1,0-2.5,0.2l-0.2-0.2l-0.1-0.9l0.1-0.2C269.9,24.9,272,24.1,273.7,23.2z"/>
		<path id="XMLID_51_" class="st1" d="M299.4,48.8l-0.6,1.5c-1.4,1-2.6,1.7-3.7,2c-1.1,0.3-2.1,0.5-3,0.6c-1.6,0.1-3.2-0.1-4.7-0.7
			c-1.5-0.6-2.8-1.6-3.8-3.1c-1-1.5-1.6-3.3-1.7-5.5c-0.1-1.4,0-2.7,0.3-3.9c0.3-1.2,0.6-2.1,1-2.6c0.4-0.6,1-1.2,1.9-2
			c0.9-0.7,1.8-1.3,2.9-1.8c1-0.5,2.1-0.7,3.3-0.8c1.6-0.1,3.1,0.2,4.4,0.9c1.3,0.7,2.2,1.6,2.8,2.8c0.6,1.2,0.9,2.4,1,3.8
			c0,0.4,0,0.8,0,1.2l-0.2,0.2c-0.9,0.3-2.2,0.5-3.7,0.6s-2.6,0.2-3.1,0.3l-6.6,0.4c0.2,2.8,1,4.9,2.5,6.1c1.5,1.3,3.2,1.8,5.2,1.7
			c1-0.1,1.9-0.3,2.7-0.6c0.9-0.4,1.8-0.9,2.7-1.5L299.4,48.8z M285.8,41.1c0.2,0,1.2,0,2.9,0c1.7,0,2.9-0.1,3.7-0.1
			c1.9-0.1,3.1-0.2,3.5-0.3c0-0.3,0-0.6,0-0.8c-0.1-2.1-0.6-3.7-1.6-4.7c-0.9-1-2.1-1.4-3.6-1.4c-1.6,0.1-2.9,0.7-3.7,2
			C286,37.1,285.6,38.8,285.8,41.1z"/>
		<path id="XMLID_54_" class="st1" d="M324.1,34l0.2,0.4c-0.6,0.8-0.9,1.4-1.1,1.7l-3.8-0.1c0.4,0.8,0.5,1.6,0.5,2.4
			c0,1-0.3,1.9-0.7,2.8c-0.5,0.9-1.1,1.7-1.9,2.3c-0.8,0.6-1.7,1.1-2.7,1.5c-1,0.4-2.2,0.5-3.5,0.5l-0.9,0c-0.8,0.6-1.4,1.1-1.6,1.4
			c-0.2,0.3-0.4,0.6-0.4,1c0,0.6,0.3,1,0.8,1.3c0.5,0.3,1.7,0.4,3.4,0.5l4.6,0.1c1.5,0,2.6,0.2,3.3,0.6c0.8,0.4,1.4,1,1.8,1.9
			c0.5,0.9,0.7,1.8,0.6,2.8c0,1.5-0.6,3-1.6,4.5c-1,1.5-2.5,2.6-4.3,3.3c-1.9,0.7-3.9,1.1-6,1c-1.2,0-2.3-0.2-3.4-0.5
			c-1-0.3-2-0.7-2.7-1.3c-0.8-0.5-1.4-1.3-1.8-2.1c-0.5-0.9-0.7-1.8-0.7-2.7c0-0.5,0.1-1,0.3-1.6c0.2-0.6,0.5-1.1,0.9-1.8l3.8-2
			c-1.2-0.4-1.9-0.8-2.2-1.2s-0.4-0.8-0.4-1.3c0-0.5,0.2-1.1,0.6-1.8l3.4-2.3c-1.9-0.6-3.2-1.4-3.9-2.4c-0.7-1-1-2.2-0.9-3.4
			c0-1.1,0.3-2.2,0.8-3.2c0.5-1,1.2-1.8,2.2-2.4c1-0.6,2.1-1,3.3-1.3c1.2-0.3,2.3-0.5,3.3-0.4c1.7,0,3.3,0.6,4.8,1.8
			C320.6,34,322.6,34,324.1,34z M312.9,52.3c-2.2-0.1-3.5-0.1-3.8,0c-0.3,0-0.8,0.3-1.4,0.7c-0.6,0.4-1.1,0.9-1.6,1.6
			c-0.4,0.7-0.6,1.5-0.6,2.4c0,1.5,0.5,2.8,1.6,3.8c1.1,1,2.6,1.5,4.6,1.6c1.4,0,2.8-0.2,4-0.8c1.2-0.6,2.2-1.4,2.8-2.4
			c0.6-1,0.9-2,0.9-2.9c0-0.9-0.2-1.7-0.7-2.4c-0.5-0.7-1.1-1.1-1.9-1.3S314.8,52.4,312.9,52.3z M307.3,38.4c0,0.8,0.1,1.7,0.4,2.7
			c0.3,1,0.8,1.7,1.5,2.2c0.7,0.5,1.5,0.8,2.5,0.8c1.2,0,2.3-0.3,3.2-1.1s1.4-2,1.4-3.7c0-1.4-0.3-2.7-1.1-3.9
			c-0.8-1.2-1.9-1.8-3.4-1.8c-1.2,0-2.3,0.3-3.2,1.1C307.8,35.6,307.3,36.8,307.3,38.4z"/>
		<path id="XMLID_58_" class="st1" d="M333.3,33.6l0.4,0.3c-0.3,1.8-0.6,4-0.9,6.8l-0.4,4.6c0,0.3-0.1,1.3-0.2,2.9
			c-0.1,1.6-0.1,2.6-0.1,2.9c0,0.3,0.1,0.5,0.2,0.6c0.1,0.1,0.3,0.2,0.4,0.3c0.2,0.1,0.9,0.2,2.2,0.4l0.2,0.2l-0.1,0.9l-0.2,0.2
			c-1.7-0.3-3.3-0.5-4.9-0.6c-1.6-0.1-3.2-0.2-4.9-0.3l-0.2-0.2l0.1-0.9l0.2-0.1c1.3,0,2.1,0.1,2.3,0c0.2,0,0.3-0.1,0.5-0.2
			c0.1-0.1,0.2-0.3,0.3-0.6c0.1-0.3,0.2-1.1,0.4-2.6c0.2-1.5,0.3-2.6,0.4-3.4l0.4-4c0.1-0.5,0.1-1.3,0.1-2.2c0-0.9,0-1.5,0-1.8
			c0-0.2-0.1-0.4-0.3-0.5c-0.2-0.1-0.5-0.2-1.1-0.3l-1.7-0.2l-0.2-0.2l0.1-0.9l0.2-0.1C329.2,34.4,331.5,34.1,333.3,33.6z
			 M332.5,24.3c0.6,0.1,1.2,0.3,1.6,0.8c0.4,0.5,0.6,1.1,0.5,1.7c-0.1,0.6-0.3,1.1-0.8,1.6c-0.5,0.4-1.1,0.6-1.7,0.5
			c-0.6-0.1-1.1-0.3-1.6-0.8c-0.4-0.5-0.6-1-0.5-1.7c0.1-0.6,0.3-1.2,0.8-1.6C331.3,24.4,331.8,24.2,332.5,24.3z"/>
		<path id="XMLID_61_" class="st1" d="M342.1,40.2l-0.8-0.3l-0.1-0.2l0.4-2.5c2.7-1.4,5.2-1.9,7.5-1.6c1.6,0.2,2.8,0.7,3.7,1.5
			c0.9,0.7,1.6,1.6,1.9,2.5c0.3,0.9,0.4,2,0.2,3.2l-0.7,4.1l-1,6.1c-0.1,0.8-0.2,1.3-0.1,1.5c0.1,0.2,0.2,0.3,0.3,0.4
			c0.1,0.1,0.4,0.2,0.8,0.3l1.1,0.3l0.1,0.2l-0.1,0.8l-0.2,0.1c-1-0.2-1.9-0.4-2.7-0.6c-0.8-0.1-1.8-0.2-2.9-0.3l-0.3-0.3l0.6-3.3
			l-5,2.8c-0.8,0.2-1.6,0.2-2.5,0.1c-1.1-0.2-2-0.5-2.7-1c-0.7-0.5-1.2-1.2-1.5-1.9c-0.3-0.8-0.4-1.7-0.2-2.7c0.3-2,1.2-3.4,2.6-4.4
			c1.4-0.9,5-1.3,10.6-1.2c0.3-2,0.1-3.5-0.7-4.4c-0.8-1-1.9-1.6-3.4-1.8c-0.8-0.1-1.5-0.1-2.2,0c-0.7,0.1-1.1,0.3-1.2,0.4
			c-0.1,0.1-0.6,0.9-1.5,2.3L342.1,40.2z M351,44.9c-3.9,0-6.4,0.3-7.4,0.9c-1.1,0.6-1.7,1.6-1.9,3.2c-0.3,2.1,0.5,3.3,2.6,3.7
			c1.8,0.3,3.7-0.5,5.8-2.3L351,44.9z"/>
		<path id="XMLID_64_" class="st1" d="M360.4,41.1l0.1-0.5l0.2-0.2c1.4-0.2,2.5-0.4,3.3-0.6c0.8-3.5,1.2-5.5,1.3-6.1
			c1.5-0.2,2.7-0.4,3.7-0.8l0.4,0.5c-0.3,0.8-1,3.2-2.2,7.2c0.7,0.2,1.4,0.3,2.2,0.5c1.6,0.4,2.7,0.6,3.4,0.7L373,42l-0.8,1.6
			l-0.2,0.1c-0.7-0.2-1.4-0.3-2.3-0.5c-0.7-0.2-1.7-0.4-2.9-0.6l-2,8.1c-0.4,1.9-0.7,3.1-0.7,3.7c0,0.6,0.1,1.1,0.4,1.5
			c0.3,0.4,0.9,0.7,1.6,0.9c0.9,0.2,1.8,0.2,2.6-0.1l0.3,0.8c-0.4,0.2-1.3,0.6-2.8,1.5c-0.8,0.2-1.5,0.2-2.2,0
			c-3-0.7-4.2-2.5-3.5-5.4c0.2-1.1,0.5-2,0.7-2.7c0.1-0.2,0.1-0.5,0.2-0.7l1.9-8.3l-0.8-0.2c-0.6-0.1-1.3-0.3-2.1-0.4L360.4,41.1z"
			/>
		<path id="XMLID_66_" class="st1" d="M387.2,61.8l-1.1,1.2c-1.6,0.5-3,0.7-4.2,0.6c-1.1-0.1-2.1-0.2-3-0.5c-1.6-0.5-3-1.2-4.2-2.3
			c-1.2-1-2.1-2.4-2.5-4.2c-0.4-1.7-0.4-3.6,0.3-5.7c0.4-1.4,1-2.6,1.6-3.6c0.7-1,1.3-1.7,1.8-2.2s1.3-0.8,2.4-1.2
			c1.1-0.4,2.2-0.6,3.3-0.7c1.1-0.1,2.3,0,3.4,0.4c1.6,0.5,2.9,1.3,3.8,2.4c1,1.1,1.5,2.3,1.7,3.6c0.1,1.3,0,2.6-0.4,3.9
			c-0.1,0.4-0.3,0.8-0.4,1.2l-0.3,0.2c-1-0.1-2.2-0.3-3.7-0.7c-1.5-0.4-2.5-0.6-3-0.8l-6.3-1.9c-0.8,2.7-0.7,4.9,0.3,6.6
			c1,1.7,2.4,2.8,4.4,3.4c0.9,0.3,1.9,0.4,2.8,0.3c0.9-0.1,2-0.2,3.1-0.5L387.2,61.8z M377,49.9c0.2,0.1,1.1,0.4,2.7,1
			s2.7,0.9,3.5,1.1c1.8,0.5,2.9,0.8,3.4,0.9c0.1-0.3,0.2-0.6,0.2-0.7c0.6-2,0.6-3.7,0.1-4.9c-0.5-1.2-1.5-2.1-2.9-2.5
			c-1.6-0.5-2.9-0.3-4.2,0.6C378.6,46.2,377.6,47.7,377,49.9z"/>
		<path id="XMLID_69_" class="st1" d="M410.2,42.3c3.1,1.5,5.1,2.4,6,2.8c1.2,0.5,2.5,1.1,4,1.7c1.6,0.6,2.5,1,2.9,1.2
			c1.8,0.8,3.1,1.6,4.1,2.5c1,0.9,1.6,2,2,3.3c0.3,1.3,0.2,2.6-0.4,4c-0.5,1.1-1.2,2.1-2.2,2.9c-1,0.8-2.1,1.4-3.4,1.7
			c-1.3,0.3-2.5,0.4-3.6,0.3c-1.1-0.1-2.2-0.4-3.2-0.9c-0.8-0.3-1.6-0.8-2.5-1.4l0.2-1.3l0.3-0.1c0.8,0.6,1.6,1.1,2.2,1.3
			c1.6,0.7,3.2,0.8,4.7,0.1c1.5-0.6,2.6-1.8,3.3-3.5c0.8-1.7,0.8-3.3,0.3-4.8c-0.6-1.5-1.9-2.7-4-3.6c-1.1-0.5-2.5-0.8-4-1
			c-0.5,0.9-1.6,3.2-3.3,6.9l-3.9,8.7l-1.6,3.7c-0.6,1.4-1,2.4-1.1,2.8c-0.1,0.4-0.2,0.8-0.1,0.9s0.2,0.4,0.5,0.7
			c0.3,0.2,1.1,0.7,2.4,1.3l0.1,0.2l-0.4,0.9l-0.2,0.1c-3.2-1.5-4.9-2.4-5.3-2.5c-0.4-0.2-2.2-0.9-5.4-2.2l-0.1-0.2l0.4-0.9l0.2,0
			c1.2,0.5,2,0.7,2.4,0.8c0.4,0.1,0.7,0.1,0.9,0.1c0.2-0.1,0.4-0.3,0.7-0.6c0.3-0.4,0.7-1.2,1.3-2.5l1.8-4l3.9-8.7l1.6-3.7
			c0.6-1.4,1-2.4,1.1-2.8c0.1-0.4,0.2-0.8,0.1-0.9c-0.1-0.2-0.2-0.4-0.5-0.6c-0.3-0.2-1.1-0.7-2.4-1.3l-0.1-0.2l0.4-0.9L410.2,42.3z
			"/>
		<path id="XMLID_71_" class="st1" d="M436.3,65.2l0.2,0.4c-0.5,0.7-1.2,1.9-2.2,3.6l2.3-1c0.8-0.3,1.4-0.5,1.9-0.7
			c0.5-0.1,1-0.1,1.6-0.1c0.5,0.1,1.1,0.3,1.5,0.5c0.5,0.3,1,0.7,1.3,1.1l0,0.3c-1.1,1.5-1.9,2.8-2.6,4.1l-0.8-0.4
			c0.1-1.4-0.4-2.3-1.4-2.9c-0.7-0.4-1.5-0.5-2.3-0.3c-0.8,0.2-1.5,0.6-2.1,1.2c-0.6,0.6-1.2,1.5-1.8,2.6l-1.1,2
			c-0.2,0.4-0.7,1.3-1.4,2.7c-0.7,1.4-1.1,2.3-1.2,2.5c-0.1,0.2-0.1,0.5,0,0.6c0.1,0.2,0.2,0.3,0.3,0.5c0.2,0.1,1,0.7,2.5,1.6
			l0.1,0.2l-0.4,0.8l-0.3,0.1c-1.5-1-3.2-1.9-4.9-2.9c-1.4-0.8-2.9-1.5-4.4-2.2l-0.1-0.3l0.4-0.8l0.2-0.1c1.2,0.6,1.9,0.9,2.1,0.9
			s0.3,0,0.5,0c0.2-0.1,0.3-0.2,0.5-0.4c0.2-0.2,0.6-1,1.4-2.3c0.8-1.3,1.3-2.3,1.7-2.9l1.9-3.6c0.3-0.5,0.6-1.2,1-2
			c0.4-0.9,0.6-1.4,0.7-1.6c0.1-0.2,0.1-0.4-0.1-0.6c-0.1-0.2-0.4-0.4-0.9-0.6l-1.5-0.8l-0.1-0.2l0.4-0.8l0.2-0.1
			C432.2,64.3,434.4,64.9,436.3,65.2z"/>
		<path id="XMLID_73_" class="st1" d="M440.5,79c0.9-1.4,2-2.5,3.4-3.4c1.4-0.9,3.1-1.4,5.1-1.4c2,0,4,0.6,5.9,1.8
			c2.4,1.6,3.9,3.6,4.4,6.1c0.5,2.5,0,5-1.5,7.4c-1.7,2.6-4,4.2-6.8,4.8c-2.8,0.6-5.5,0.1-8-1.5c-1.6-1-2.8-2.4-3.5-4.1
			c-0.7-1.7-1-3.4-0.7-5S439.6,80.5,440.5,79z M444.6,80c-1,1.6-1.8,3.2-2.2,4.7c-0.4,1.5-0.4,3,0,4.3c0.4,1.4,1.2,2.4,2.3,3.1
			c1.4,0.9,2.8,1.1,4.4,0.6c1.6-0.5,3.1-1.8,4.5-4c1.6-2.5,2.4-4.8,2.5-7c0.1-2.2-0.8-3.9-2.6-5c-1.5-1-3-1.2-4.6-0.6
			S445.9,77.9,444.6,80z"/>
		<path id="XMLID_76_" class="st1" d="M482.1,97.9l-0.1,0.4c-1,0.3-1.6,0.6-1.9,0.7l-3-2.4c-0.2,0.8-0.5,1.6-1,2.2
			c-0.6,0.8-1.4,1.4-2.3,1.8c-0.9,0.4-1.9,0.7-2.9,0.7c-1,0-2-0.1-3.1-0.4c-1-0.3-2.1-0.9-3.1-1.7l-0.7-0.6c-1,0-1.7,0.1-2.1,0.2
			c-0.4,0.1-0.7,0.3-0.9,0.5c-0.4,0.5-0.4,1-0.1,1.5c0.3,0.5,1.1,1.3,2.5,2.4l3.7,2.8c1.1,0.9,1.9,1.7,2.3,2.5
			c0.4,0.7,0.5,1.6,0.4,2.6c-0.2,1-0.6,1.9-1.2,2.7c-0.9,1.2-2.2,2.1-3.9,2.7c-1.7,0.6-3.5,0.6-5.5,0.1c-1.9-0.5-3.7-1.4-5.4-2.7
			c-0.9-0.7-1.7-1.5-2.4-2.4c-0.7-0.9-1.1-1.7-1.4-2.6c-0.3-0.9-0.4-1.8-0.2-2.8c0.1-1,0.5-1.8,1.1-2.5c0.3-0.4,0.7-0.8,1.2-1.1
			c0.5-0.3,1.1-0.6,1.8-0.9l4.2,0.7c-0.7-1-1.1-1.8-1.1-2.3c0-0.5,0.1-0.9,0.4-1.3c0.3-0.4,0.8-0.8,1.5-1.1l4.1,0.2
			c-1.2-1.6-1.8-3-1.7-4.2c0.1-1.2,0.5-2.3,1.2-3.3c0.7-0.9,1.5-1.6,2.5-2.1s2.1-0.7,3.2-0.6c1.1,0.1,2.3,0.4,3.4,0.9
			c1.2,0.5,2.1,1,2.9,1.6c1.3,1.1,2.3,2.5,2.8,4.3C479.3,95.9,480.9,97.1,482.1,97.9z M462.2,106c-1.7-1.4-2.8-2.1-3.1-2.3
			c-0.3-0.2-0.8-0.3-1.6-0.3c-0.7-0.1-1.5,0.1-2.2,0.4c-0.7,0.3-1.4,0.8-1.9,1.5c-1,1.2-1.3,2.6-1,4s1.2,2.8,2.7,4
			c1.1,0.9,2.4,1.5,3.7,1.7c1.3,0.3,2.5,0.2,3.6-0.2c1.1-0.4,1.9-1,2.5-1.8c0.6-0.7,0.9-1.5,0.9-2.3c0-0.8-0.2-1.5-0.7-2.1
			C464.7,108,463.7,107.1,462.2,106z M466,91.4c-0.5,0.7-0.9,1.5-1.3,2.4s-0.4,1.9-0.1,2.7c0.3,0.8,0.8,1.5,1.5,2.1
			c1,0.8,2,1.1,3.2,1c1.2-0.1,2.3-0.8,3.3-2.1c0.9-1.1,1.3-2.4,1.4-3.8c0.1-1.4-0.5-2.5-1.7-3.5c-1-0.8-2.1-1.1-3.2-1
			C468,89.4,467,90.1,466,91.4z"/>
		<path id="XMLID_80_" class="st1" d="M490,103.3l0.1,0.5c-0.6,0.5-1.6,1.5-3,3l2.5-0.4c0.8-0.1,1.5-0.2,2-0.2c0.5,0,1,0.1,1.6,0.3
			c0.5,0.2,1,0.5,1.4,0.9c0.4,0.4,0.8,0.9,1,1.4l-0.1,0.3c-1.4,1.2-2.6,2.3-3.5,3.3l-0.7-0.6c0.4-1.3,0.2-2.4-0.7-3.2
			c-0.6-0.6-1.4-0.9-2.2-0.9c-0.8,0-1.6,0.2-2.3,0.7s-1.5,1.2-2.3,2.1l-1.5,1.7c-0.3,0.3-0.9,1.1-2,2.3c-1,1.2-1.6,1.9-1.7,2.2
			c-0.1,0.2-0.2,0.4-0.2,0.6c0,0.2,0.1,0.3,0.2,0.5c0.1,0.2,0.8,0.9,2,2.1l0,0.2l-0.6,0.6l-0.3,0c-1.3-1.3-2.6-2.6-4.1-4
			c-1.2-1.1-2.4-2.1-3.8-3.2l0-0.3l0.6-0.6l0.2,0c1,0.8,1.6,1.3,1.8,1.4c0.2,0.1,0.3,0.1,0.5,0.1c0.2,0,0.4-0.1,0.6-0.3
			c0.2-0.2,0.9-0.8,1.9-1.8c1.1-1.1,1.8-1.9,2.4-2.5l2.7-3c0.4-0.4,0.9-1,1.4-1.7c0.6-0.7,1-1.2,1.1-1.4c0.1-0.2,0.2-0.4,0.1-0.6
			c-0.1-0.2-0.3-0.5-0.7-0.8l-1.3-1.2l0-0.2l0.6-0.7l0.2,0C486.2,101.5,488.2,102.6,490,103.3z"/>
		<path id="XMLID_82_" class="st1" d="M496.1,116.8l-0.4-0.7l0-0.3l1.8-1.8c3,0.5,5.3,1.6,6.9,3.3c1.1,1.1,1.8,2.3,2.1,3.5
			c0.3,1.2,0.3,2.2,0,3.2s-0.9,1.8-1.8,2.6l-3.1,2.8l-4.4,4.2c-0.6,0.6-0.9,1-1,1.2c0,0.2,0,0.4,0,0.5c0.1,0.2,0.2,0.4,0.5,0.7
			l0.7,0.9l0,0.2l-0.6,0.6l-0.2,0c-0.6-0.8-1.2-1.5-1.8-2.1c-0.6-0.6-1.3-1.3-2.1-2.1l0-0.4l2.5-2.2l-5.6-0.8
			c-0.7-0.3-1.4-0.8-2-1.5c-0.8-0.8-1.3-1.6-1.5-2.5c-0.3-0.8-0.3-1.7,0-2.5s0.7-1.5,1.4-2.2c1.5-1.4,3-2,4.7-1.9
			c1.7,0.1,4.8,2,9.2,5.5c1.5-1.4,2.2-2.7,2.2-3.9c0-1.2-0.6-2.4-1.6-3.5c-0.5-0.6-1.1-1-1.7-1.3c-0.6-0.3-1-0.5-1.2-0.4
			c-0.2,0-1,0.3-2.6,0.9L496.1,116.8z M500.3,125.9c-3.1-2.3-5.3-3.6-6.5-3.8c-1.2-0.2-2.3,0.3-3.5,1.3c-1.5,1.5-1.6,3-0.1,4.5
			c1.3,1.3,3.3,1.9,6,1.7L500.3,125.9z"/>
		<path id="XMLID_85_" class="st1" d="M517.5,131.8l0,0.5c-0.8,0.5-1.7,1.1-2.7,1.8l2.6,0.5c0.7,0.1,1.2,0.2,1.4,0.3
			c0.2,0.1,0.6,0.3,1.2,0.7c0.6,0.4,1,0.9,1.5,1.5c0.8,1.1,1.3,2.3,1.4,3.5c0.1,1.2-0.2,2.4-0.9,3.5c2.5,0.4,3.9,0.7,4.3,0.8
			c0.3,0.1,0.8,0.4,1.4,0.8c0.6,0.4,1,0.9,1.5,1.4c0.7,0.9,1.1,1.8,1.2,2.8c0.2,1,0.1,1.9-0.2,2.8c-0.3,0.9-0.7,1.6-1.4,2.2
			c-0.6,0.6-1.6,1.4-2.8,2.3l-1.7,1.3c-0.2,0.1-1.5,1.2-4,3.2c-1,0.8-1.5,1.4-1.6,1.7c0,0.4,0.4,1.1,1.2,2.2l0,0.2l-0.7,0.5l-0.2,0
			c-1-1.5-1.6-2.4-2-2.9c-0.2-0.3-0.9-1-1.9-2.3l0-0.3c1.5-0.9,3.4-2.3,5.7-4l2-1.5c1.7-1.3,2.9-2.3,3.5-3c0.6-0.7,0.8-1.5,0.8-2.4
			c0-0.9-0.3-1.8-1-2.6c-0.4-0.6-1-1.1-1.6-1.4c-0.6-0.3-1.3-0.5-2.1-0.6c-0.8-0.1-1.4,0-1.8,0.3c-0.4,0.3-1.2,0.8-2.3,1.6l-2,1.6
			c-0.5,0.4-1.4,1.1-2.7,2.1c-1.3,1-2,1.7-2.2,1.9c-0.2,0.2-0.3,0.4-0.3,0.6c0,0.2,0,0.3,0.1,0.5c0.1,0.2,0.5,0.8,1.2,1.9l0,0.2
			l-0.7,0.5l-0.2,0c-0.9-1.4-1.9-2.8-2.9-4c-0.9-1.2-1.9-2.4-3.1-3.8l0-0.3l0.7-0.5l0.2,0c0.9,1,1.4,1.6,1.5,1.7
			c0.1,0.1,0.3,0.2,0.5,0.2c0.2,0,0.4,0,0.6-0.1c0.2-0.1,1-0.6,2.2-1.5c1.2-0.9,2.2-1.5,2.8-2l1.9-1.4c1.2-0.9,2.1-1.7,2.7-2.4
			c0.5-0.7,0.8-1.5,0.9-2.4c0-0.9-0.3-1.8-0.9-2.6c-0.5-0.7-1.1-1.2-1.7-1.5s-1.3-0.5-2-0.6c-0.6-0.1-1.2,0-1.5,0.2
			c-0.4,0.2-1.1,0.7-2.2,1.5l-2.4,1.8c-0.5,0.4-1.4,1.1-2.7,2.1c-1.3,1-2,1.7-2.2,1.9c-0.2,0.2-0.3,0.4-0.3,0.6c0,0.2,0,0.3,0.1,0.5
			c0.1,0.2,0.5,0.8,1.2,1.9l0,0.2l-0.7,0.5l-0.2,0c-0.9-1.4-1.9-2.8-2.9-4c-1-1.3-2-2.5-3.1-3.8l0-0.3l0.7-0.5l0.2,0
			c0.9,1,1.4,1.6,1.5,1.7c0.1,0.1,0.3,0.2,0.5,0.2c0.2,0,0.4,0,0.6-0.1c0.2-0.1,1-0.6,2.2-1.5c1.2-0.9,2.2-1.5,2.8-2l3.2-2.5
			c0.4-0.3,1-0.8,1.7-1.4c0.7-0.6,1.2-1,1.3-1.2c0.2-0.2,0.2-0.3,0.2-0.5c0-0.2-0.2-0.5-0.5-0.9l-1-1.4l0-0.2l0.7-0.5l0.2,0
			C514.1,129.4,515.9,130.8,517.5,131.8z"/>
	</g>
	<g id="XMLID_3_">
		<path id="XMLID_4_" class="st1" d="M212.3,561.1c0.5-1.6,1.3-3,2.4-4.2c1.1-1.2,2.6-2.1,4.5-2.7c1.9-0.5,4-0.5,6.2,0.2
			c2.7,0.9,4.7,2.4,5.9,4.7c1.2,2.3,1.3,4.8,0.5,7.5c-0.9,3-2.7,5.1-5.3,6.5c-2.6,1.3-5.3,1.5-8.1,0.6c-1.8-0.6-3.3-1.6-4.4-3
			c-1.1-1.4-1.8-3-2-4.6C211.6,564.4,211.7,562.7,212.3,561.1z M216.4,560.9c-0.6,1.8-0.9,3.5-0.8,5.1c0,1.6,0.4,3,1.1,4.2
			c0.7,1.2,1.8,2,3.1,2.4c1.5,0.5,3,0.3,4.4-0.6c1.4-0.9,2.5-2.6,3.3-5c0.9-2.8,1.1-5.2,0.5-7.4c-0.5-2.1-1.8-3.5-3.9-4.2
			c-1.7-0.5-3.2-0.3-4.6,0.6C218.2,556.9,217.1,558.6,216.4,560.9z"/>
		<path id="XMLID_7_" class="st1" d="M243.1,578.5l0.1,0.2l-0.2,0.8l-0.2,0.1c-0.4-0.1-1.2-0.3-2.3-0.6c-1-0.3-2.1-0.6-3.2-0.9
			c-1.4-0.3-3.1-0.7-4.9-1l-0.1-0.2l0.2-0.8l0.2-0.1c1.3,0.2,2.1,0.3,2.2,0.4c0.2,0,0.3,0,0.5-0.1s0.3-0.3,0.4-0.5
			c0.1-0.2,0.4-1.1,0.8-2.5s0.7-2.5,0.9-3.3l1.9-7.7l-2.6-0.5l-0.1-0.2l0.1-0.5l0.2-0.2l2.9-0.7l0.3-1.2c0.3-1.3,0.6-2.3,0.9-3
			c0.3-0.7,0.7-1.2,1.1-1.7s1.2-1.1,2.2-1.8c1-0.7,1.9-1.2,2.7-1.7s1.4-0.7,1.9-0.8c0.5-0.1,1.1-0.1,1.7,0.1c0.5,0.1,1,0.4,1.6,0.7
			l-0.8,3.3l-0.5,0.1c-0.6-0.8-1.4-1.4-2.4-1.6c-0.7-0.2-1.3-0.2-1.9,0c-0.6,0.2-1,0.5-1.4,1.1c-0.3,0.6-0.7,1.6-1.1,3.1l-1,4.1
			l2.1,0.5c1.1,0.3,2.2,0.5,3.2,0.6l0.1,0.3l-0.8,1.7l-0.2,0.2c-0.4-0.1-0.7-0.2-0.8-0.2l-2.6-0.6l-1.5-0.4l-1.9,8.1
			c-0.1,0.4-0.3,1.4-0.6,3c-0.3,1.5-0.5,2.5-0.5,2.7c0,0.3,0,0.5,0.1,0.6c0.1,0.2,0.3,0.3,0.6,0.4
			C240.6,577.8,241.5,578.1,243.1,578.5z"/>
		<path id="XMLID_9_" class="st1" d="M260.9,555.8l-0.2-0.2l0.1-0.9l0.2-0.2l5.9-0.3c0.4,0.3,0.7,0.7,1.1,1.2
			c0.3,0.5,0.8,1.4,1.4,2.6c0.6,1.3,1.4,3.1,2.3,5.3c0.9,2.3,1.8,4.5,2.6,6.8l2.5-3.1l2.8-3.6l5.2-6.9c0.5,0.1,1,0.2,1.5,0.3
			c0.3,0,0.8,0.1,1.4,0.1l0.1,0.2l0,0.4c-0.8,0.7-2,1.9-3.7,3.7c-1.7,1.8-2.9,3.2-3.7,4.2c-0.8,1-1.9,2.3-3.1,3.9
			c-1.2,1.6-1.9,2.5-2,2.8c-0.1,0.3-0.2,0.7-0.3,1.2l-0.4,3l-0.3,3.1c-0.1,1.2-0.2,2-0.2,2.5c0,0.5,0.1,0.8,0.2,1
			c0.1,0.2,0.3,0.3,0.7,0.4c0.3,0.1,1.2,0.3,2.7,0.5l0.1,0.1l-0.1,1l-0.2,0.1c-0.1,0-1.3-0.2-3.6-0.6c-1-0.1-1.7-0.2-2.3-0.3
			c-0.4-0.1-2.4-0.2-5.9-0.5l-0.1-0.2l0.1-1l0.2-0.1c1.3,0.1,2.2,0.1,2.6,0.1c0.4,0,0.7-0.1,0.9-0.2c0.2-0.1,0.3-0.4,0.4-0.7
			c0.1-0.4,0.3-1.1,0.4-2.3l0.5-3.5l0.5-3.9c-0.2-0.8-1-2.7-2.4-5.6l-1.4-3.1c-0.5-1-1-2.2-1.8-3.5c-0.7-1.3-1.3-2.3-1.7-2.8
			c-0.4-0.5-0.8-0.8-1-0.9C262.7,556.1,262.1,555.9,260.9,555.8z"/>
		<path id="XMLID_11_" class="st1" d="M287.9,572l-0.8-0.2l-0.2-0.2l0.1-2.5c2.5-1.7,4.9-2.5,7.2-2.4c1.6,0.1,2.9,0.4,3.9,1.1
			c1,0.6,1.7,1.4,2.2,2.3c0.4,0.9,0.6,1.9,0.6,3.1l-0.3,4.1l-0.3,6.1c0,0.8,0,1.3,0.1,1.5s0.2,0.3,0.4,0.4c0.1,0.1,0.4,0.1,0.8,0.2
			l1.2,0.2l0.2,0.2l0,0.8l-0.2,0.2c-1-0.1-1.9-0.2-2.8-0.2c-0.8,0-1.8,0-3,0l-0.3-0.3l0.2-3.3l-4.6,3.3c-0.8,0.3-1.6,0.4-2.5,0.4
			c-1.1,0-2-0.3-2.8-0.7c-0.8-0.4-1.3-1-1.7-1.7c-0.4-0.7-0.6-1.6-0.5-2.6c0.1-2,0.8-3.6,2.1-4.6c1.3-1.1,4.8-1.9,10.4-2.4
			c0.1-2-0.3-3.5-1.2-4.3c-0.9-0.9-2.1-1.3-3.6-1.4c-0.8,0-1.5,0.1-2.2,0.3c-0.7,0.2-1,0.4-1.1,0.5c-0.1,0.1-0.5,1-1.2,2.5
			L287.9,572z M297.2,575.6c-3.9,0.5-6.3,1.1-7.3,1.8c-1,0.7-1.5,1.8-1.6,3.4c-0.1,2.1,0.9,3.2,3,3.3c1.8,0.1,3.7-0.9,5.5-2.9
			L297.2,575.6z"/>
		<path id="XMLID_14_" class="st1" d="M311.7,566.8l0.4,0.3c0,0.9-0.1,2.1,0,3.6c1.1-0.9,2.1-1.9,3-2.9c0.3-0.3,0.5-0.5,0.8-0.6
			c0.2-0.1,0.7-0.3,1.2-0.4c0.6-0.2,1.2-0.3,1.8-0.3c1,0,2.1,0.1,3.1,0.5s1.8,0.9,2.3,1.4c0.5,0.6,0.9,1.2,1.1,2
			c0.2,0.8,0.4,1.8,0.4,2.9l0.1,3.6c0,0.2,0.1,1.9,0.3,5.1c0.1,1.3,0.3,2.1,0.5,2.3c0.3,0.2,1.1,0.3,2.6,0.3l0.2,0.2l0,0.9l-0.2,0.2
			c-1.7,0-2.9,0-3.5,0c-0.4,0-1.4,0.1-3,0.3l-0.3-0.2c0.1-1.8,0.1-4.1,0-7l-0.1-2.7c-0.1-1.6-0.1-2.8-0.3-3.5
			c-0.1-0.7-0.4-1.3-0.8-1.9c-0.4-0.6-0.9-1-1.6-1.3c-0.7-0.3-1.4-0.4-2.3-0.4c-0.7,0-1.3,0.1-1.8,0.3c-0.5,0.2-1.1,0.5-1.7,1
			c-0.6,0.5-1.1,0.9-1.3,1.3c-0.3,0.4-0.5,0.8-0.5,1.1c0,0.3-0.1,1.1,0,2.2l0.1,3.6c0,0.3,0.1,1.3,0.2,2.9c0.1,1.6,0.2,2.6,0.3,2.9
			c0.1,0.3,0.2,0.5,0.3,0.6c0.1,0.1,0.3,0.2,0.5,0.2c0.2,0,0.9,0.1,2.2,0.1l0.2,0.2l0,0.9l-0.2,0.2c-1.7,0-3.4,0-5,0
			c-1.6,0.1-3.2,0.2-4.9,0.4l-0.2-0.2l0-0.9l0.2-0.2c1.3-0.1,2.1-0.2,2.2-0.3c0.2,0,0.3-0.1,0.4-0.3c0.1-0.1,0.2-0.3,0.2-0.6
			s0.1-1.2,0.1-2.7c0-1.5,0-2.6,0-3.4l-0.2-4c0-0.5-0.1-1.3-0.2-2.2c-0.1-0.9-0.2-1.5-0.2-1.7c0-0.2-0.2-0.4-0.3-0.5
			c-0.2-0.1-0.5-0.1-1.1-0.1l-1.7,0l-0.2-0.2l0-0.9l0.2-0.2C307.8,568.2,309.9,567.6,311.7,566.8z"/>
		<path id="XMLID_16_" class="st1" d="M351.8,564.6l0.2,0.3c-0.4,0.9-0.7,1.5-0.8,1.8l-3.8,0.5c0.5,0.7,0.8,1.5,0.9,2.3
			c0.1,1,0,1.9-0.3,2.9c-0.3,1-0.8,1.8-1.5,2.6c-0.7,0.7-1.5,1.4-2.5,1.9c-0.9,0.5-2.1,0.8-3.3,1l-0.9,0.1c-0.7,0.7-1.2,1.3-1.4,1.6
			c-0.2,0.3-0.3,0.7-0.2,1c0.1,0.6,0.4,1,1,1.2c0.6,0.2,1.7,0.1,3.5-0.1l4.6-0.7c1.4-0.2,2.6-0.2,3.4,0.1c0.8,0.2,1.5,0.8,2.1,1.6
			c0.6,0.8,0.9,1.7,1.1,2.7c0.2,1.5-0.1,3.1-0.9,4.7c-0.8,1.6-2,2.9-3.8,3.9c-1.7,1-3.6,1.7-5.7,1.9c-1.2,0.2-2.3,0.2-3.4,0
			c-1.1-0.1-2-0.4-2.9-0.8c-0.8-0.4-1.6-1-2.2-1.8c-0.6-0.8-0.9-1.6-1.1-2.5c-0.1-0.5-0.1-1,0-1.6c0.1-0.6,0.3-1.2,0.6-1.9l3.4-2.5
			c-1.2-0.2-2-0.5-2.4-0.8c-0.4-0.3-0.6-0.7-0.6-1.2c-0.1-0.5,0-1.1,0.3-1.9l3-2.8c-2-0.3-3.4-0.8-4.2-1.8c-0.8-0.9-1.3-2-1.4-3.2
			c-0.1-1.1,0-2.2,0.3-3.2c0.3-1.1,1-2,1.8-2.7c0.9-0.7,1.9-1.3,3-1.8c1.1-0.5,2.2-0.8,3.2-0.9c1.7-0.2,3.4,0.1,5.1,1
			C348.3,565.1,350.3,564.9,351.8,564.6z M335.8,571.5c0.1,0.8,0.4,1.7,0.8,2.6c0.4,0.9,1.1,1.6,1.9,2c0.8,0.4,1.6,0.5,2.6,0.4
			c1.2-0.2,2.2-0.7,3-1.6s1.1-2.2,0.8-3.9c-0.2-1.4-0.7-2.6-1.7-3.7c-0.9-1-2.2-1.4-3.6-1.3c-1.2,0.2-2.2,0.7-3,1.6
			C335.8,568.6,335.6,569.9,335.8,571.5z M343.5,584.4c-2.2,0.3-3.4,0.5-3.8,0.6c-0.3,0.1-0.8,0.4-1.3,0.9c-0.6,0.5-1,1.1-1.3,1.9
			c-0.3,0.8-0.4,1.6-0.3,2.4c0.2,1.5,0.9,2.7,2.2,3.5c1.3,0.8,2.9,1.1,4.8,0.9c1.4-0.2,2.7-0.7,3.8-1.4c1.1-0.8,1.9-1.7,2.4-2.8
			c0.4-1.1,0.6-2.1,0.5-3s-0.5-1.7-1-2.3c-0.6-0.6-1.2-0.9-2-1C346.7,584.1,345.4,584.2,343.5,584.4z"/>
		<path id="XMLID_20_" class="st1" d="M355.8,572.8c-0.3-1.6-0.4-3.2,0-4.8c0.3-1.6,1.2-3.2,2.6-4.6c1.4-1.4,3.2-2.4,5.4-2.9
			c2.8-0.6,5.3-0.2,7.5,1.2c2.2,1.4,3.5,3.5,4.1,6.3c0.7,3.1,0.2,5.8-1.4,8.2c-1.6,2.4-3.8,3.9-6.7,4.6c-1.9,0.4-3.7,0.3-5.4-0.4
			c-1.7-0.7-3.1-1.7-4.1-3C356.8,576,356.1,574.5,355.8,572.8z M359.2,570.6c0.4,1.9,1,3.5,1.8,4.9c0.8,1.4,1.8,2.4,3.1,3.1
			c1.2,0.7,2.5,0.9,3.9,0.6c1.6-0.3,2.8-1.3,3.5-2.7c0.8-1.5,0.9-3.5,0.3-6c-0.6-2.9-1.7-5.1-3.2-6.6c-1.5-1.6-3.3-2.1-5.4-1.7
			c-1.7,0.4-3,1.3-3.7,2.8C358.8,566.3,358.7,568.2,359.2,570.6z"/>
		<path id="XMLID_23_" class="st1" d="M381.4,556.2l0.5,0.1c0.2,0.9,0.5,2.1,0.9,3.5c0.8-1.2,1.5-2.4,2.2-3.6
			c0.2-0.3,0.4-0.6,0.6-0.8c0.2-0.2,0.6-0.4,1.1-0.7c0.5-0.3,1.1-0.6,1.7-0.7c1-0.3,2-0.4,3.1-0.3s1.9,0.4,2.6,0.8
			c0.7,0.4,1.2,1,1.6,1.7c0.4,0.7,0.8,1.6,1.2,2.7l1.1,3.5c0.1,0.2,0.6,1.8,1.6,4.9c0.4,1.2,0.8,1.9,1.1,2.1c0.3,0.2,1.2,0,2.5-0.4
			l0.2,0.1l0.3,0.8l-0.1,0.2c-1.7,0.4-2.8,0.7-3.4,0.9c-0.3,0.1-1.3,0.5-2.8,1.1l-0.3-0.1c-0.4-1.8-1-4-1.8-6.7l-0.8-2.6
			c-0.5-1.5-0.9-2.6-1.2-3.3c-0.3-0.7-0.7-1.2-1.2-1.6s-1.2-0.7-1.9-0.8c-0.7-0.1-1.5,0-2.3,0.2c-0.7,0.2-1.2,0.5-1.7,0.8
			c-0.4,0.3-0.9,0.7-1.4,1.4c-0.5,0.6-0.8,1.2-1,1.6c-0.2,0.5-0.2,0.9-0.2,1.2c0,0.3,0.2,1,0.6,2.1l1.1,3.4c0.1,0.3,0.4,1.2,0.9,2.8
			c0.5,1.5,0.9,2.4,1,2.7c0.1,0.2,0.3,0.4,0.4,0.5c0.2,0.1,0.3,0.1,0.5,0.1c0.2,0,0.9-0.2,2.2-0.5l0.2,0.1l0.3,0.8l-0.1,0.2
			c-1.7,0.4-3.3,0.8-4.8,1.3c-1.5,0.5-3.1,1-4.7,1.6l-0.2-0.1l-0.3-0.8l0.1-0.2c1.2-0.5,1.9-0.8,2.1-0.9c0.2-0.1,0.3-0.2,0.4-0.4
			s0.1-0.4,0.1-0.6c0-0.3-0.2-1.1-0.6-2.6c-0.4-1.5-0.7-2.5-0.9-3.3l-1.2-3.9c-0.2-0.5-0.4-1.2-0.7-2.1s-0.6-1.4-0.6-1.6
			c-0.1-0.2-0.2-0.3-0.4-0.4c-0.2,0-0.6,0-1.1,0.2l-1.7,0.5l-0.2-0.1l-0.3-0.8l0.1-0.2C377.9,558.5,379.9,557.4,381.4,556.2z"/>
	</g>
</g>
</svg>
