<?xml version="1.0" encoding="utf-8"?>
<!-- Generator: Adobe Illustrator 19.0.0, SVG Export Plug-In . SVG Version: 6.00 Build 0)  -->
<svg version="1.1" id="Layer_1" xmlns="http://www.w3.org/2000/svg" xmlns:xlink="http://www.w3.org/1999/xlink" x="0px" y="0px"
	 viewBox="0 0 612 612" style="enable-background:new 0 0 612 612;" xml:space="preserve">
<style type="text/css">
	.st0{fill:#3A54A5;}
</style>
<g>
	<path id="XMLID_17_" class="st0" d="M282.1,290.7c-12.3-1.4-23.7-3.9-34.3-7.2v69.4h34.3V290.7z"/>
	<path id="XMLID_16_" class="st0" d="M241.1,281.2c-12.7-4.6-24.1-10.3-34.3-16.8v88.5h34.3V281.2z"/>
	<path id="XMLID_15_" class="st0" d="M36.1,274c-18.3,11.7-33.1,16.9-35.8,17.8C0.1,296.5,0,301.2,0,306c0,15.9,1.2,31.5,3.6,46.8
		h32.5V274z"/>
	<path id="XMLID_14_" class="st0" d="M364.2,283.4c-10.6,3.3-22,5.8-34.3,7.3v62.1h34.3V283.4z"/>
	<path id="XMLID_13_" class="st0" d="M323.1,291.3c-5.6,0.5-11.2,0.8-17.1,0.8c-5.9,0-11.6-0.3-17.1-0.8v61.5h34.3V291.3z"/>
	<path id="XMLID_12_" class="st0" d="M77.1,238.6c-11,12.9-23.1,23.1-34.3,30.9v83.3h34.3V238.6z"/>
	<path id="XMLID_11_" class="st0" d="M106.3,188.1c-5.8,16.2-13.6,30.2-22.5,42.1v122.6h22.5V188.1z"/>
	<path id="XMLID_10_" class="st0" d="M159.1,220.1c-11-14.3-18.3-27.7-22.5-36.7v169.4h22.5V220.1z"/>
	<path id="XMLID_9_" class="st0" d="M200.1,259.8c-13.8-9.7-25.1-20.6-34.3-31.4v124.4h34.3V259.8z"/>
	<path id="XMLID_8_" class="st0" d="M569.2,269.5c-11.2-7.8-23.3-18-34.3-30.9v114.2h34.3V269.5z"/>
	<path id="XMLID_7_" class="st0" d="M101.5,169.4l0.9-3.9h37.8l1.2,3.4c1.6,4.6,39.9,113,164.6,113c21.9,0,41.2-3.5,58.1-9.2v0h0.1
		c15.6-5.3,29.2-12.5,40.9-20.7v-0.2h0.3c47.6-33.2,65-82.2,65.2-82.9l1.2-3.4h37.8l0.9,3.9c4.9,20.4,13.5,37.4,23.7,51.6h0.7v0.9
		c26.6,36.6,63.7,53.8,76,58.7C598.1,123.5,466.5,0,306,0C145.5,0,13.9,123.5,1,280.7C18.2,273.8,83.6,243,101.5,169.4z"/>
	<path id="XMLID_6_" class="st0" d="M612,306c0-4.8-0.1-9.5-0.3-14.3c-2.6-0.9-17.5-6.1-35.7-17.8v78.8h32.5
		C610.8,337.5,612,321.9,612,306z"/>
	<path id="XMLID_5_" class="st0" d="M405.2,264.2c-10.2,6.5-21.6,12.3-34.3,16.9v71.7h34.3V264.2z"/>
	<path id="XMLID_4_" class="st0" d="M572.6,380.4h-41h-25.9v66h-30.2v-66h-25.9h-41h-41h-41h-41h-41h-41h-41h-25.9v66h-30.2v-66
		H80.5h-41H9.1C42.4,513.4,162.7,612,306,612s263.6-98.6,296.9-231.6H572.6z"/>
	<path id="XMLID_3_" class="st0" d="M446.2,228.2c-9.2,10.8-20.5,21.7-34.3,31.5v93.1h34.3V228.2z"/>
	<path id="XMLID_2_" class="st0" d="M475.4,183.4c-4.3,8.9-11.5,22.2-22.5,36.5v132.9h22.5V183.4z"/>
	<path id="XMLID_1_" class="st0" d="M528.2,230.2c-8.9-11.9-16.8-25.9-22.5-42.1v164.7h22.5V230.2z"/>
</g>
</svg>
